<svg width="78" height="70" viewBox="0 0 78 70" fill="none" xmlns="http://www.w3.org/2000/svg">
<g clip-path="url(#clip0_46_245)">
<path d="M42.0954 49.5076C43.0018 48.1246 41.8622 42.8382 44.7617 43.7229C46.0984 44.1312 45.531 46.817 45.406 47.9375C44.9011 52.4923 43.6653 58.3889 41.9103 62.6035C41.3669 63.9111 40.5735 65.1215 40.0206 66.4267C43.5572 65.9965 46.899 64.6135 50.0365 62.9802C51.443 62.6351 52.496 64.0521 51.5632 65.2479C50.9068 66.0864 46.75 67.7246 45.5695 68.1135C20.0655 76.5281 -4.71712 54.1208 0.769307 27.6423C5.22672 6.14165 28.5284 -5.95766 48.5603 2.95762C49.9956 3.59685 53.6308 4.85102 52.0777 6.81734C51.1376 8.00831 49.8586 6.7663 48.8585 6.38956C49.4427 7.23539 50.6496 7.95241 50.4092 9.12394C50.2048 10.1156 49.2503 10.4413 48.3632 10.0694C47.7116 9.7972 45.3267 7.05553 44.3361 6.31178C43.223 5.4781 41.8045 4.61526 40.4749 4.20206C40.7562 5.58748 43.5091 8.98053 41.7155 10.0038C40.9702 10.4291 40.1768 10.2493 39.6888 9.54442C38.8858 8.38748 38.4169 6.40658 37.4673 5.05276C37.1115 4.5472 36.6186 3.88123 36.056 3.65762V49.5052H42.0954V49.5076ZM33.1709 17.4875V3.66005C31.7549 4.65658 30.7114 6.76387 30.019 8.39234C28.8217 11.2021 28.0451 14.4614 27.5811 17.4875H33.1709ZM16.5818 17.4875H24.5158C25.4654 12.9496 26.5161 8.33401 28.8433 4.29685C29.0165 3.74998 26.1723 5.46109 25.9751 5.58748C21.8038 8.26109 18.4451 12.9083 16.5842 17.4899L16.5818 17.4875ZM8.10698 17.4875H13.2472L16.327 11.6809L20.0968 6.56942C15.2259 8.98053 10.9656 12.85 8.10698 17.4875ZM12.2543 20.3993H6.30381C4.32274 24.5337 3.16872 28.8989 2.8778 33.4976H10.0905C10.2179 29.0423 11.0353 24.66 12.2543 20.3993ZM24.1551 20.3993H15.3196C13.9084 24.6187 13.1414 29.0423 12.9755 33.4976H23.0732C23.2055 29.1177 23.381 24.7087 24.1551 20.3993ZM33.1709 20.3993H27.1315L26.8911 20.7031C26.379 24.9469 26.004 29.2149 25.9607 33.5H33.1733V20.4017L33.1709 20.3993ZM10.0905 36.4094H2.8778C3.16872 41.0104 4.32274 45.3757 6.30381 49.5076H12.2543C11.0257 45.2469 10.2371 40.8621 10.0905 36.4094ZM23.0732 36.4094H12.9755C13.1414 40.8646 13.9084 45.2906 15.3196 49.5076H24.1551C23.381 45.1958 23.2055 40.7868 23.0732 36.4094ZM33.1709 36.4094H25.9583C26.0016 40.6944 26.379 44.9625 26.8887 49.2062L27.1291 49.5101H33.1685V36.4118L33.1709 36.4094ZM13.2448 52.4194H8.10457C10.9776 57.0496 15.2138 60.9312 20.0944 63.3375C20.2074 63.1844 19.8203 62.7517 19.7169 62.6253C19.1592 61.9375 18.4956 61.3201 17.9498 60.5885C16.0337 58.0219 14.6561 55.2826 13.2424 52.4194H13.2448ZM24.5158 52.4194H16.5818C18.4451 57.001 21.8038 61.6483 25.9727 64.3219C26.1699 64.4482 29.014 66.1594 28.8409 65.6125C26.5137 61.5753 25.463 56.9597 24.5134 52.4219L24.5158 52.4194ZM33.1709 52.4194H27.5811C28.4467 57.1469 29.6031 62.8344 33.1709 66.2469V52.4194ZM41.8261 52.4194H36.056V66.2469C36.7099 66.1253 37.2413 65.1798 37.6115 64.633C39.9701 61.1694 40.8043 56.4274 41.8261 52.4194Z" fill="#404040"/>
<path d="M64.4931 17.5267L76.5407 17.4829C77.2884 17.5048 77.8726 18.0978 77.8918 18.8465C77.6274 22.6017 78.2308 26.8041 77.8966 30.5034C77.8125 31.4221 77.5192 31.9301 76.5407 32.0444C72.8189 31.777 68.6524 32.3871 64.9884 32.0492C64.0796 31.9666 63.5747 31.6676 63.4593 30.6808C63.0386 27.0277 63.7839 22.5871 63.4593 18.8465C63.4761 18.2169 63.8921 17.6895 64.4931 17.5242V17.5267ZM75.0044 20.3996H66.3492V29.1326H75.0044V20.3996Z" fill="#404040"/>
<path d="M64.4931 55.3704L76.5407 55.3267C77.2884 55.3485 77.8726 55.9416 77.8918 56.6902C77.6274 60.4454 78.2308 64.6478 77.8966 68.3471C77.8125 69.2659 77.5192 69.7739 76.5407 69.8881C72.8189 69.6208 68.6524 70.2308 64.9884 69.893C64.0796 69.8103 63.5747 69.5114 63.4593 68.5246C63.0386 64.8714 63.7839 60.4308 63.4593 56.6902C63.4761 56.0607 63.8921 55.5333 64.4931 55.368V55.3704ZM75.0044 58.2409H66.3492V66.9739H75.0044V58.2409Z" fill="#404040"/>
<path d="M55.8379 2.97258C58.7206 3.15001 62.1875 2.6007 65.0004 2.92883C65.8347 3.02605 66.2578 3.45626 66.3516 4.29237C66.58 6.28786 66.5415 10.9983 66.3564 13.0375C66.2722 13.9563 65.9789 14.4642 65.0004 14.5785C63.0265 14.8094 58.3503 14.7681 56.3332 14.5833C55.4244 14.5007 54.9195 14.2017 54.8041 13.2149C54.5878 11.3337 54.5878 6.17362 54.8041 4.29237C54.8811 3.61911 55.1768 3.17188 55.8379 2.97015V2.97258ZM63.4641 5.84306H57.694V11.6642H63.4641V5.84306Z" fill="#404040"/>
<path d="M55.8379 33.5368C58.7206 33.7142 62.1875 33.1649 65.0004 33.493C65.8347 33.5903 66.2578 34.0205 66.3516 34.8566C66.58 36.8521 66.5415 41.5625 66.3564 43.6017C66.2722 44.5205 65.9789 45.0285 65.0004 45.1427C63.0265 45.3736 58.3503 45.3323 56.3332 45.1476C55.4244 45.0649 54.9195 44.766 54.8041 43.7791C54.5878 41.8979 54.5878 36.7378 54.8041 34.8566C54.8811 34.1833 55.1768 33.7361 55.8379 33.5344V33.5368ZM63.4641 36.4097H57.694V42.2309H63.4641V36.4097Z" fill="#404040"/>
<path d="M47.1827 49.5468C50.0654 49.7242 53.5323 49.1749 56.3452 49.503C57.1795 49.6003 57.6026 50.0305 57.6964 50.8666C57.9248 52.8621 57.8863 57.5725 57.7012 59.6117C57.617 60.5305 57.3237 61.0385 56.3452 61.1527C54.3713 61.3836 49.6951 61.3423 47.678 61.1576C46.7692 61.0749 46.2643 60.776 46.1489 59.7892C45.9325 57.9079 45.9325 52.7478 46.1489 50.8666C46.2259 50.1933 46.5216 49.7461 47.1827 49.5444V49.5468ZM54.8089 52.4197H49.0388V58.2409H54.8089V52.4197Z" fill="#404040"/>
<path d="M39.9701 13.1615C40.8693 12.9597 45.2137 12.9986 46.2475 13.1177C47.0817 13.215 47.5049 13.6452 47.5987 14.4813C47.7044 15.4049 47.7285 20.2611 47.5145 20.9538C47.339 21.525 46.8077 21.7924 46.2475 21.858C45.3339 21.965 40.5182 21.9893 39.833 21.7729C39.268 21.5955 39.0012 21.0608 38.9363 20.4945C38.7872 19.1966 38.7872 15.7816 38.9363 14.4837C39.0084 13.8566 39.3233 13.3073 39.9701 13.1615ZM44.7112 16.032H41.8261V18.9438H44.7112V16.032Z" fill="#404040"/>
<path d="M48.6253 23.348C49.5245 23.1463 53.8689 23.1852 54.9027 23.3043C55.737 23.4015 56.1601 23.8317 56.2539 24.6678C56.3596 25.5914 56.3837 30.4477 56.1697 31.1404C55.9942 31.7115 55.4629 31.9789 54.9027 32.0445C53.9891 32.1515 49.1734 32.1758 48.4882 31.9595C47.9233 31.782 47.6564 31.2473 47.5915 30.681C47.4424 29.3831 47.4424 25.9681 47.5915 24.6702C47.6636 24.0431 47.9786 23.4938 48.6253 23.348ZM53.3664 26.2209H50.4813V29.1327H53.3664V26.2209Z" fill="#404040"/>
<path d="M38.5276 33.5367C39.4267 33.335 43.7712 33.3739 44.805 33.493C45.6392 33.5902 46.0624 34.0204 46.1561 34.8565C46.2619 35.7801 46.286 40.6364 46.072 41.3291C45.8965 41.9003 45.3652 42.1676 44.805 42.2333C43.8914 42.3402 39.0757 42.3645 38.3905 42.1482C37.8255 41.9708 37.5587 41.436 37.4938 40.8697C37.3447 39.5718 37.3447 36.1569 37.4938 34.8589C37.5659 34.2319 37.8808 33.6826 38.5276 33.5367ZM43.2687 36.4096H40.3836V39.3214H43.2687V36.4096Z" fill="#404040"/>
</g>
<defs>
<clipPath id="clip0_46_245">
<rect width="78" height="70" fill="white"/>
</clipPath>
</defs>
</svg>
