<svg width="100" height="70" viewBox="0 0 100 70" fill="none" xmlns="http://www.w3.org/2000/svg">
<g clip-path="url(#clip0_46_256)">
<path d="M100 43.1266V49.5356C99.0208 51.1313 96.7448 50.7706 95.4167 51.8734L93.75 56.056C93.974 57.7296 96.1953 59.3877 95.026 61.0016C94.5911 61.6009 91.625 64.5537 91.0234 64.9818C89.2083 66.2766 87.5547 63.617 86.0495 63.713C85.1172 63.7727 82.8359 65.5138 81.5807 65.4541C80.9375 66.5802 80.8359 69.5563 79.3516 69.8858C78.5807 70.0571 73.5781 70.0311 72.8568 69.8158C71.7448 69.4837 71.4193 66.4686 70.8516 65.506C70.1849 65.1868 69.4297 65.0675 68.7526 64.7769C67.9635 64.4395 66.7682 63.5911 66.013 63.7961C64.1927 64.2916 63.1068 66.3155 61.1276 64.7846C60.5182 64.315 57.1979 60.9678 57.0703 60.4645C56.987 60.1323 57.0312 59.7743 57.0286 59.437H47.4583L50.0234 66.7904C52.224 67.0265 59.0573 65.7291 56.0052 69.7821L21.9219 69.7769C20.5391 69.0841 20.8229 67.0732 22.3698 66.8267C23.3229 66.6762 27.3125 67.0187 27.6979 66.7826L30.2682 59.4344H5.17708C4.86979 59.4344 3.20312 58.6585 2.86458 58.4302C1.36719 57.4209 0.5 55.877 0 54.1905V5.25169C0.736979 2.48832 2.83854 0.350285 5.76302 0.0103788L71.5911 0C74.5911 0.114167 77.0755 2.33264 77.6849 5.20498L77.8203 22.5506C78.0703 22.9087 79.0677 22.6336 79.5495 22.7711C80.7188 23.1059 81.0078 26.1521 81.6406 27.1017L85.888 28.9128C88.0521 28.5548 89.237 26.2091 91.4115 27.8723C92.0625 28.3705 94.474 30.7395 94.9245 31.37C96.2917 33.2849 94.0807 34.6964 93.7526 36.6009L95.526 40.8718C96.9062 41.7981 99.0469 41.5075 100 43.124V43.1266ZM3.125 5.7369V44.097H52.5391C52.1068 41.5361 55.3776 41.8604 56.987 40.9445L58.7812 36.4245C58.3099 35.2102 56.6927 33.3601 57.1172 32.0472C57.2344 31.684 60.8203 28.0592 61.3229 27.6829C63.3281 26.191 65.2057 29.2112 66.599 28.8687C67.763 28.5833 69.4375 27.234 70.8516 27.1562C71.8724 25.1479 71.4245 22.0836 74.6094 22.7348V5.9315C74.4505 4.54593 73.526 3.68189 72.2708 3.20706L6.33854 3.10846C4.95052 3.08511 3.35156 4.38765 3.125 5.73949V5.7369ZM77.9115 25.8589L74.6016 25.9289C74.1979 26.1962 73.9896 29.0607 72.9583 29.7327C72.3594 30.122 70.5677 30.4541 69.7292 30.7966C68.4271 31.3285 67.1849 32.5013 65.7656 32.2055C64.9635 32.0368 63.276 30.4177 62.5937 30.8744C62.3802 31.0171 60.6042 32.8153 60.5781 32.958C60.8177 34.0633 62.1693 35.5345 62.125 36.6165C62.0964 37.2574 60.5755 40.0337 60.2057 40.9393C59.8099 41.9019 59.9141 43.0929 58.8438 43.6637C58.362 43.9206 55.724 44.5304 55.6589 44.808L55.6927 47.958C56.7682 48.3887 58.9453 48.5963 59.5807 49.6264C60.0078 50.3166 60.2839 51.946 60.6536 52.8334C61.1589 54.04 62.3438 55.2906 62.0703 56.5802C61.8932 57.4157 60.8307 58.6404 60.6276 59.4395C60.4792 60.026 62.3542 61.4115 62.7943 61.9123L66.4766 60.275C67.8333 60.8277 69.0937 61.5646 70.4557 62.1173C71.5651 62.5662 72.9323 62.4416 73.5885 63.6637C73.8464 64.1438 74.4609 66.7644 74.7396 66.8319L77.9115 66.8033C78.237 65.9107 78.638 63.5989 79.2839 63.0202C79.7812 62.5765 81.8047 62.1925 82.6146 61.8656C83.4792 61.5179 85.026 60.4359 85.737 60.2932C86.9948 60.0389 88.4036 61.6295 89.4531 61.889C90.0443 62.0343 91.4349 60.1739 91.9375 59.7353C91.6224 58.7416 90.1719 56.8786 90.2734 55.8926C90.3359 55.2802 91.5651 53.438 91.8906 52.6388C92.3255 51.5724 92.5443 49.5148 93.5026 48.9984C93.9635 48.7494 96.8385 48.0332 96.8854 47.862L96.8464 44.7068L93.0729 43.3108C92.4635 42.2937 92.3464 41.095 91.888 40.0208C91.474 39.0503 90.0729 37.0161 90.3151 36.1313C90.4714 35.5579 92.0391 33.1422 91.8958 32.8282L89.7135 30.7265C88.474 31.0301 87.1198 32.3482 85.8385 32.2626C85.2135 32.2185 82.9688 30.903 82.0755 30.5527C80.599 29.9741 79.5469 30.3088 78.8099 28.7519C78.4089 27.9087 78.1667 26.7696 77.9089 25.8614L77.9115 25.8589ZM52.5391 47.2055H3.125V53.713C3.125 54.5174 4.72917 56.3363 5.56771 56.3363H58.7917L56.9323 51.6788C56.1094 51.082 53.2292 50.7395 52.7552 50.0052C52.3099 49.315 52.638 48.0202 52.5417 47.2081L52.5391 47.2055ZM31.0547 66.8215H46.6797L44.1615 59.5563L43.8542 59.4266L33.7839 59.533L31.0521 66.8189L31.0547 66.8215Z" fill="#404040"/>
<path d="M21.289 23.7L31.888 29.5225C32.9244 30.5889 32.2447 32.2573 30.763 32.2625C30.3046 32.2625 29.8906 31.9589 29.4895 31.7695C26.1067 30.166 20.8411 27.2573 17.7161 25.2205C16.3281 24.3149 15.8437 23.3912 17.3203 22.1847C21.3177 20.2438 25.1302 17.5791 29.0989 15.6408C29.9713 15.2153 31.0729 14.4628 31.9244 15.3632C32.776 16.2636 32.414 17.1925 31.5442 17.8775C29.138 19.7742 24.5416 21.5516 21.7395 23.277C21.6171 23.3523 21.1979 23.5677 21.2916 23.7026L21.289 23.7Z" fill="#404040"/>
<path d="M46.4271 15.0027C46.8568 14.8756 47.388 14.9274 47.7969 15.1143L60.5338 22.2575C61.6588 23.0541 61.5573 24.3203 60.4167 25.0312C56.4219 26.9799 52.6042 29.6317 48.6354 31.5725C47.7656 31.998 47.2031 32.5377 46.2161 32.0266C45.3229 31.5647 45.2057 30.2674 45.888 29.6161L56.4401 23.6041L45.8854 17.5948C45.1016 16.9487 45.4792 15.2803 46.4271 15.0001V15.0027Z" fill="#404040"/>
<path d="M41.1588 10.5345C42.4088 10.2647 43.1588 11.1002 43.1276 12.2859L37.7604 35.5164C37.5026 36.3155 36.7474 36.8604 35.888 36.684C34.6458 36.4271 34.7161 35.3269 34.8229 34.3435C35.5885 27.2859 38.9453 19.2216 39.9401 12.0472C40.0989 11.3908 40.4296 10.6928 41.1614 10.5345H41.1588Z" fill="#404040"/>
<path d="M74.9557 36.7696C88.1692 35.1868 89.7604 55.0804 76.8515 55.9392C64.6041 56.754 62.8333 38.2226 74.9557 36.7696ZM75.1484 39.8754C67.1041 40.9548 68.4973 53.6377 76.8359 52.8178C85.4479 51.9719 84.2343 38.6585 75.1484 39.8754Z" fill="#404040"/>
</g>
<defs>
<clipPath id="clip0_46_256">
<rect width="100" height="70" fill="white"/>
</clipPath>
</defs>
</svg>
