<svg width="81" height="76" viewBox="0 0 81 76" fill="none" xmlns="http://www.w3.org/2000/svg">
<g clip-path="url(#clip0_46_263)">
<path d="M0.0494664 47.8562C0.933426 38.9591 12.9667 36.3137 19.1011 31.6932L40.3042 4.87601C42.4558 2.88511 45.6416 3.12881 47.4807 5.40862L53.5142 15.8191C55.8082 15.994 58.2722 15.257 60.5048 15.707C60.7935 15.8977 61.0012 16.1492 61.2088 16.4205C62.0275 17.4994 63.3011 19.8185 63.9517 21.0724C64.6023 22.3263 64.7941 22.3892 64.0525 23.7355C63.6669 24.4351 60.9339 28.1477 60.9498 28.4464C62.4072 31.3689 64.4381 34.1243 65.9035 37.0232C67.4835 40.1461 66.8626 42.8249 63.5759 44.2911L32.1449 50.3659C32.4771 51.8989 34.6505 53.7286 34.1304 55.3953C33.8594 56.26 30.4818 57.6967 29.6137 58.2902L29.4792 58.5732L34.2312 66.7353C36.9227 71.9042 31.9669 77.5723 26.412 75.5931C24.5769 74.9387 23.6198 73.5158 22.633 71.969C20.0009 67.8379 17.8552 63.3648 15.235 59.2198C9.87981 61.2717 3.5774 58.9427 1.12723 53.768C0.72974 52.9288 0.146366 51.2562 0.0494664 50.364C-0.0197475 49.7292 -0.0138148 48.493 0.0494664 47.8523V47.8562ZM63.2437 40.9028C63.6985 40.4134 63.7144 39.4877 63.3544 38.9296L45.084 7.4742C44.0517 5.94909 42.1631 6.73326 41.8665 8.30161L61.3057 41.5258C61.8871 41.404 62.8166 41.3607 63.2437 40.9028ZM57.9162 42.2058L39.6556 10.8251L22.0437 33.0591L30.3454 47.5535L57.9162 42.2039V42.2058ZM59.3361 25.2586L61.0467 22.3853C60.5918 21.8625 59.1522 18.6904 58.642 18.6767L55.3869 18.9852L58.9505 25.0975L59.3361 25.2606V25.2586ZM27.4028 48.7937L19.4214 35.1542C14.9087 37.9155 10.1033 40.2365 5.74082 43.2258C-1.06191 50.0476 7.0638 60.3479 15.3912 55.6272L27.4048 48.7937H27.4028ZM27.7311 55.692C27.8655 55.7864 30.5451 54.2161 30.5451 54.0549L28.9077 51.4862L26.2954 52.8796L27.7311 55.692ZM23.6059 54.6032L18.0965 57.793L26.0679 71.5406C28.3263 74.4297 32.7619 72.1518 31.6248 68.6928L23.6039 54.6052L23.6059 54.6032Z" fill="#404040"/>
<path d="M81 7.84166V8.62583C80.6401 9.25474 80.3771 9.46897 79.7818 9.85024C77.128 11.5503 73.9323 12.8906 71.2013 14.514C69.4967 15.141 68.3279 13.1324 69.558 11.9433L78.6705 6.86488C79.8036 6.53077 80.5056 6.77841 80.998 7.84166H81Z" fill="#404040"/>
<path d="M70.6773 21.5283C71.0589 21.4418 71.4861 21.4752 71.8717 21.5322C72.8644 21.6796 77.1359 22.7901 77.9507 23.1851C79.5999 23.987 78.892 26.2805 77.1478 26.1921C76.3746 26.1528 71.4228 24.8065 70.6615 24.4567C69.2277 23.8003 69.378 21.8211 70.6773 21.5263V21.5283Z" fill="#404040"/>
<path d="M62.7078 0.513061C63.6926 -0.587534 65.5356 0.220224 65.4921 1.62741C65.4724 2.25829 63.9971 7.7082 63.6906 8.31549C63.1013 9.48684 61.1198 9.42395 60.8014 8.19364C60.5602 7.26599 61.5806 3.88167 61.9128 2.785C62.0809 2.22684 62.3696 0.888442 62.7078 0.513061Z" fill="#404040"/>
</g>
<defs>
<clipPath id="clip0_46_263">
<rect width="81" height="76" fill="white"/>
</clipPath>
</defs>
</svg>
