<svg width="76" height="67" viewBox="0 0 76 67" fill="none" xmlns="http://www.w3.org/2000/svg">
<g clip-path="url(#clip0_46_269)">
<path d="M3.68062 0.0450514L71.8518 0C73.7912 0.244565 75.2716 1.57465 75.8556 3.40889C76.0108 18.4925 76.097 33.6791 75.8125 48.752C75.1165 50.6721 73.6059 51.8627 71.5264 52.0408H4.60508C1.89418 51.7705 0.211183 49.992 0 47.304V4.57808C0.183169 2.25686 1.42225 0.677916 3.68062 0.0450514ZM4.3271 2.13243C3.49529 2.35769 2.80356 2.88543 2.50618 3.69636L2.42214 47.6301C2.45446 48.7156 3.24532 49.4021 4.23874 49.6788L71.0458 49.7947C72.9055 49.6295 73.5736 48.5633 73.7115 46.8234C73.5973 32.4263 73.914 17.9841 73.552 3.61269C73.2439 2.83395 72.69 2.43278 71.897 2.20537L4.3271 2.13243Z" fill="#404040"/>
<path d="M75.6035 63.3959C75.4052 63.5825 75.026 63.5868 74.7631 63.604L19.8318 63.5911C18.2889 66.9678 13.7247 68.0383 10.7165 65.8823C9.75751 65.1958 9.52478 64.4106 8.78349 63.6276L1.86832 63.5932C0.833958 63.4023 0.721902 61.5638 2.19803 61.36C4.2409 61.0789 6.8419 61.5445 8.94726 61.3557C10.5268 57.3568 16.608 57.0501 19.1465 60.2358C19.4418 60.607 19.4504 61.257 19.9633 61.3514L74.7566 61.3471C75.791 61.3063 76.3168 62.7223 75.6013 63.3959H75.6035ZM13.7032 60.268C12.2292 60.4697 10.3544 61.7354 11.4793 63.3573C12.9145 65.4232 18.0863 64.7581 17.4247 61.9457C17.1187 60.6477 14.8518 60.1136 13.7032 60.268Z" fill="#404040"/>
<path d="M36.0153 7.12027C50.546 5.8481 61.2021 20.168 55.3558 33.5633C49.1625 47.7523 28.9665 48.707 21.4178 35.1766C14.8906 23.4761 22.5255 8.30018 36.0153 7.12027ZM36.3386 9.36855C24.383 10.4262 17.623 23.888 23.5189 34.2133C29.7919 45.1994 45.9086 45.3088 52.3389 34.4193C59.2713 22.6844 49.934 8.16503 36.3386 9.3664V9.36855Z" fill="#404040"/>
<path d="M32.9316 17.0636C33.5005 16.9478 34.3173 16.98 34.8711 17.1516C38.0647 19.1939 41.9716 20.9445 45.0208 23.1241C47.0766 24.5937 47.1973 27.0329 45.2449 28.6547C43.6546 29.9762 37.332 33.7198 35.3818 34.5929C33.4316 35.4661 30.7961 34.4814 30.5504 32.2031C30.1302 28.3007 30.8543 23.6712 30.5655 19.6916C30.7185 18.5696 31.8111 17.291 32.9316 17.0636ZM33.5803 19.3012C33.0933 19.3934 32.8153 19.8461 32.811 20.3159C33.0609 23.8921 32.4877 27.8824 32.8067 31.4071C32.8735 32.143 33.0415 32.5506 33.8647 32.6128L44.1696 26.4644C44.4885 25.7435 44.2364 25.4947 43.6933 25.0849C40.9329 23.0061 37.0713 21.4637 34.2224 19.3977C34.0199 19.2712 33.813 19.2561 33.5803 19.299V19.3012Z" fill="#404040"/>
</g>
<defs>
<clipPath id="clip0_46_269">
<rect width="76" height="67" fill="white"/>
</clipPath>
</defs>
</svg>
