<svg width="84" height="86" viewBox="0 0 84 86" fill="none" xmlns="http://www.w3.org/2000/svg">
<g clip-path="url(#clip0_46_275)">
<path d="M46.8481 64.8539C47.3411 64.8863 47.7535 64.576 48.1727 64.3652C52.9506 61.9518 63.2344 54.3179 68.0215 54.2738C73.6126 54.2229 75.6306 60.8123 71.5438 64.2378L46.6177 79.6215C44.7241 80.6267 42.5425 80.9927 40.4162 80.7587L22.5279 75.9921C21.5419 75.7397 20.8001 76.7518 19.8925 76.9973C21.0535 78.8085 22.2745 80.8305 20.5582 82.7761C20.0215 83.3829 16.0061 85.6851 15.1975 85.8913C13.8775 86.2248 12.5897 85.8079 11.6959 84.7865L0.0990205 63.9993C-0.182032 62.8018 0.126665 61.5326 1.02281 60.6941C1.48585 60.261 5.34225 58.0352 5.92739 57.8638C8.48911 57.1134 9.86443 58.7903 10.8205 60.8655L22.7145 54.077C28.0384 51.4343 33.8184 55.0497 39.0731 56.6201C41.7385 57.4168 44.549 57.2802 46.2998 59.7723C47.4517 61.4121 47.3411 63.0033 46.8481 64.8562V64.8539ZM12.3017 63.1353L18.6139 74.5538C19.0355 74.6511 21.2355 72.6708 22.028 73.0159C27.8518 74.2643 33.8137 76.6175 39.6214 77.7408C42.0725 78.2156 43.335 78.167 45.5788 77.0205L70.4219 61.5534C71.0969 60.7057 71.0393 58.9895 70.4173 58.107C69.0282 56.136 65.5542 57.5558 63.831 58.4081C58.9794 60.8123 54.2799 64.4231 49.4398 66.8527C44.7149 69.2244 40.0268 67.5499 35.2305 66.1926C34.491 65.9842 31.9892 65.3889 31.5469 65.0346C30.6277 64.298 31.2152 62.5748 32.42 62.591C35.3595 62.9292 38.9372 64.8331 41.8007 64.9906C44.7909 65.155 45.5396 61.3496 42.6208 60.3398C41.0359 59.7932 39.0639 59.5222 37.3822 59.008C33.194 57.7272 28.3125 54.7139 24.0921 56.5043L12.2994 63.1377L12.3017 63.1353ZM6.71757 60.5575C5.73158 60.8123 4.07291 62.3618 2.95792 62.6837L2.81739 63.3368L14.0203 83.1536C14.1447 83.2439 14.2668 83.2277 14.4096 83.2069C14.6446 83.1721 17.9205 81.3679 18.2292 81.127C18.501 80.9139 18.7291 80.636 18.6162 80.2793L7.5446 60.6918L7.18982 60.5089C7.02626 60.4834 6.87652 60.5158 6.71987 60.5575H6.71757Z" fill="#404040"/>
<path d="M80.5375 40.7569C82.5786 40.4975 84.5529 41.4888 83.8594 43.8281C81.9819 46.1211 80.2403 48.8703 78.2868 51.066C76.8562 52.6757 75.8379 53.0254 74.23 51.3323C72.7971 49.8269 70.8527 47.154 69.5857 45.417C68.8969 44.4743 68.0491 43.7378 68.3094 42.4407C68.7057 40.4836 71.0439 40.9584 71.3066 40.5925C72.3041 25.2991 61.9259 12.3751 47.0509 9.60273C45.4037 9.29468 43.4548 9.82276 43.2175 7.72667C43.1092 6.76779 43.0747 1.76728 43.2935 1.04233C43.5124 0.317384 44.3302 -0.016138 45.0328 7.48932e-05C46.8044 0.039449 49.2739 0.530467 51.0247 0.935789C69.0443 5.10713 81.7769 22.1515 80.5375 40.7569ZM45.9819 2.9624V6.60334C59.2559 8.15978 70.6569 18.3762 73.3983 31.5364C74.0641 34.7257 74.4788 39.0036 73.9604 42.2207C73.7439 43.5617 72.8408 43.5386 71.7258 43.6173L76.1305 49.2501L80.5375 43.5339C79.5607 43.4598 78.2154 43.8837 77.7592 42.765C77.4713 42.0586 77.78 41.8131 77.78 41.1993C77.7915 29.0188 74.8059 19.3976 65.4137 11.2912C60.0553 6.66588 53.0635 3.55996 45.9819 2.96471V2.9624Z" fill="#404040"/>
<path d="M38.2069 33.6463C33.0581 29.8339 32.5352 22.149 37.426 17.8665C43.8832 12.2129 54.0034 16.8405 54.0057 25.4125C54.0057 28.8334 52.4576 31.3857 49.9604 33.5606C55.2866 35.5918 59.7074 39.7215 61.4836 45.2269C61.8498 46.3595 63.0293 49.9217 61.6632 50.5077L27.057 50.6466C24.8754 50.6698 25.9627 47.2419 26.3359 45.9194C27.9554 40.1963 32.5536 35.4228 38.2069 33.6463ZM42.6577 18.2626C34.9656 19.3743 34.9656 31.4506 42.6577 32.5623C53.9504 34.1952 53.9504 16.6297 42.6577 18.2626ZM59.2858 47.865C57.2102 37.5814 45.5396 32.2867 36.3639 37.4331C32.4338 39.6358 29.6556 43.4435 28.7041 47.865H59.2858Z" fill="#404040"/>
<path d="M8.61124 20.6806C8.91533 20.588 9.26319 20.6181 9.57419 20.6853C9.99807 20.7756 15.163 23.7472 15.6352 24.1386C16.8055 25.1114 15.4371 27.0476 15.0524 28.1849C14.1378 30.8878 13.4352 33.5583 13.2509 36.4326C13.009 36.9815 12.5782 37.315 11.9908 37.4216C10.8827 37.6208 6.63235 37.6092 5.48281 37.447C4.33326 37.2849 3.94854 36.5739 3.99692 35.4737C4.13744 32.2728 5.19484 28.1246 6.2891 25.1091C6.60701 24.2336 7.82798 20.9192 8.61354 20.6806H8.61124ZM6.93414 34.6885H10.4772C10.885 34.1118 10.832 33.1645 10.9887 32.428C11.4609 30.2138 12.0806 28.0389 12.9583 25.9568L9.70319 23.9394C8.28642 27.365 7.21289 30.9688 6.93644 34.6885H6.93414Z" fill="#404040"/>
<path d="M5.15795 39.4064C6.08404 39.198 10.6131 39.2466 11.6867 39.3694C13.7899 39.6079 13.2509 41.5859 13.5503 43.2188C13.7508 44.3074 13.9788 45.4122 14.2783 46.4753C14.6907 47.9367 15.7895 49.88 16.0545 51.1075C16.1213 51.4155 16.1489 51.7699 16.0568 52.0733C15.7849 52.9743 10.6062 55.4317 9.57415 56.1428C7.84177 56.6569 6.95484 53.5556 6.45724 52.2401C5.30539 49.2013 4.06139 44.4162 3.98306 41.1852C3.96463 40.4186 4.34474 39.5848 5.15565 39.4018L5.15795 39.4064ZM10.4772 42.1441H6.93411C7.22207 45.8592 8.27026 49.4746 9.70086 52.8932L12.9376 50.9014C11.8018 48.2123 10.9633 45.3589 10.7076 42.4313L10.4772 42.1418V42.1441Z" fill="#404040"/>
<path d="M39.0363 0.0648468C39.967 0.0277889 41.0221 0.0162081 41.2824 1.17659C41.492 2.1123 41.439 6.64264 41.3193 7.7289C41.082 9.85047 38.9349 9.28534 37.3085 9.60033C34.5418 10.133 32.0031 10.9622 29.4367 12.1156C28.9253 12.2477 28.5544 12.0554 28.1789 11.7242C26.9603 10.6449 25.8176 7.23788 24.6911 5.86442C23.9286 4.08332 26.0987 3.48113 27.3795 2.93221C30.6577 1.52632 35.4794 0.210763 39.0363 0.0648468ZM38.5525 2.96232C34.8481 3.18467 31.2498 4.32883 27.8403 5.73935C28.2158 6.28132 29.3308 8.82211 29.8307 8.86612C30.1578 8.89623 33.618 7.57835 34.4058 7.38148C35.7719 7.04101 37.1703 6.85572 38.5548 6.60326V2.96232H38.5525Z" fill="#404040"/>
<path d="M18.1163 22.1538C17.4644 22.5336 17.1211 22.5707 16.4392 22.2928C15.3242 21.8342 11.8249 19.7937 10.8527 19.0548C10.1824 18.5429 10.0464 18.1863 10.2538 17.3015C10.3989 16.6854 12.9952 13.5054 13.5826 12.843C14.4811 11.8308 15.7712 10.5384 16.7802 9.63514C17.5289 8.96578 20.2173 6.69597 20.9729 6.38793C21.8714 6.0243 22.422 6.1679 22.9702 6.89516C23.5185 7.62242 25.8637 11.5714 26.1493 12.3728C26.306 12.8105 26.3797 13.3108 26.2461 13.7625C26.124 14.1771 23.0923 16.3473 22.4795 16.917C20.8255 18.4503 19.3995 20.3055 18.114 22.1561L18.1163 22.1538ZM21.0489 9.74399C20.7817 9.81811 18.2177 12.03 17.8168 12.4075C17.3192 12.8777 16.8147 13.3803 16.3494 13.8806C15.884 14.3809 13.9512 16.5812 13.76 17.0097C13.6748 17.1996 13.5988 17.3409 13.7508 17.5308L16.7871 19.1776C18.6439 16.8429 20.7195 14.6519 23.1015 12.8499C23.1753 12.6994 21.6963 10.052 21.535 9.89686C21.3622 9.7301 21.3047 9.67451 21.0489 9.74399Z" fill="#404040"/>
</g>
<defs>
<clipPath id="clip0_46_275">
<rect width="84" height="86" fill="white"/>
</clipPath>
</defs>
</svg>
