<svg width="80" height="81" viewBox="0 0 80 81" fill="none" xmlns="http://www.w3.org/2000/svg">
<g clip-path="url(#clip0_48_284)">
<path d="M26.0667 53.0392C27.6021 52.6842 28.6062 53.9626 27.8917 55.3613L18.4562 69.6893C17.5875 70.619 16.6021 70.4056 15.8062 69.5266C13.8833 67.4073 12.2708 64.5696 10.3562 62.3933C9.5729 60.8022 11.2583 59.5048 12.6708 60.3669L17.1292 65.9705L25.2646 53.6499C25.4625 53.3794 25.7333 53.1153 26.0667 53.0392Z" fill="#404040"/>
<path d="M79.0667 25.4103L79.1667 24.9475H79.1896C79.2771 24.6475 79.3584 24.3453 79.4292 24.0411C79.575 23.4178 79.6646 22.786 79.7667 22.1563L80.0021 21.0555V17.5754C79.9271 16.6838 79.3833 14.0405 78.8625 12.7875C77.0479 7.71008 72.9375 3.41445 67.9938 1.37756C67.4 1.09442 66.7271 0.889468 66.1542 0.737336C65.9208 0.669721 65.6854 0.608446 65.45 0.551396C65.1396 0.477443 64.8292 0.41828 64.5167 0.363343C64.4854 0.357004 64.4563 0.352779 64.425 0.34644C64.3771 0.337988 64.3271 0.329536 64.2792 0.321084C64.0396 0.278825 63.8021 0.238679 63.5646 0.204872C63.2021 0.143596 62.8417 0.0802078 62.4833 -0.00219727H59.2042C59.0042 0.0442877 58.8021 0.0844337 58.6021 0.120354C57.55 0.240792 56.5313 0.447861 55.5479 0.73311C55.4625 0.758465 55.375 0.783821 55.2896 0.809176C55.1792 0.842983 55.0708 0.878904 54.9604 0.914824C54.3229 1.12189 53.6958 1.35854 53.0875 1.63534V1.64379C42.4042 6.50358 37.4292 21.1379 46.2604 31.8907L31.5083 46.8081C28.5271 44.317 24.8375 42.6731 20.9521 42.3392L20.8063 38.612C36.9896 37.4203 44.2542 17.0388 32.5229 5.47669C21.0208 -5.85719 1.27918 1.64379 0.0270919 17.736C-0.0562414 18.8073 0.0875086 19.9736 0.0270919 21.0576C0.250009 22.0507 0.341675 23.0691 0.572925 24.0643C2.38126 31.8252 9.39376 38.0077 17.2646 38.6373L17.4542 38.762L17.3771 42.3414C9.45001 43.009 2.40209 49.1176 0.575009 56.9609C0.343759 57.9561 0.252092 58.9745 0.0291753 59.9676V63.2892C0.252092 64.2822 0.343759 65.3007 0.575009 66.2959C2.15418 73.0721 7.86251 78.8532 14.5542 80.4505C15.5375 80.6851 16.5417 80.7759 17.5229 81.0041H20.8021C21.7833 80.7781 22.7875 80.6872 23.7708 80.4505C31.5792 78.5848 37.6021 71.3606 38.2292 63.287H41.8896C42.2646 71.348 48.5708 78.6144 56.2583 80.4505C57.2417 80.6851 58.2458 80.7759 59.2271 81.0041H62.5063L66.4438 80.1674C72.4979 78.2911 77.3208 73.4081 79.1729 67.2763L79.9979 63.2892V59.9676C79.775 58.9745 79.6833 57.9561 79.4521 56.9609C78.0979 51.1524 73.6854 46.0432 68.2771 43.7591C56.3146 38.7071 42.9333 46.8758 41.8625 59.8641L41.6271 60.1007L38.2021 59.9761C37.9396 55.9805 36.2604 52.1983 33.7896 49.1303L48.5229 34.1917C58.8313 43.0703 74.9146 38.4218 79.0625 25.4103H79.0667ZM50.0542 73.4905C51.7021 69.9851 55.2979 66.9213 59.1938 66.4966C64.6979 65.8965 69.3229 68.561 71.6542 73.5666C65.7646 79.2441 55.8646 79.2694 50.0542 73.4905ZM59.6542 52.2532C68.3521 50.8904 68.5125 64.2696 59.7854 63.1159C54.1396 62.3679 54.0479 53.1322 59.6542 52.2532ZM65.6313 46.1235C75.8292 49.2275 80.2438 62.0721 73.9854 70.8768C73.6979 70.9486 73.2917 69.9872 73.0979 69.721C71.4417 67.4411 69.0979 65.307 66.4104 64.3921C72.0396 59.5915 69.2708 49.6268 61.8083 49.0457C53.1354 48.3696 49.0833 58.5646 55.3188 64.3921C53.3667 64.9816 51.7521 66.3846 50.2396 67.7116L47.7458 70.8768C39.1167 58.2413 50.9792 41.6652 65.6313 46.1235ZM23.9271 3.89409C34.125 6.99801 38.5396 19.8426 32.2813 28.6473C32.0646 28.7022 31.0625 27.0077 30.7938 26.6759C29.2479 24.7489 27.0458 22.955 24.7063 22.1627C30.3354 17.362 27.5646 7.39736 20.1042 6.8163C11.4313 6.14015 7.37918 16.3351 13.6146 22.1627C11.6417 22.7268 10.0563 24.1679 8.53543 25.4821L6.04168 28.6473C-2.58958 16.014 9.28334 -0.562129 23.9271 3.89409ZM18.0813 20.8864C12.4354 20.1385 12.3438 10.9027 17.95 10.0238C26.6479 8.6609 26.8083 22.0401 18.0813 20.8864ZM8.35001 31.261C10.3688 27.0584 14.4479 24.1298 19.1604 24.151C23.9229 24.1721 27.9854 27.0309 29.9479 31.3371C24.0688 37.0104 14.15 37.0463 8.34793 31.261H8.35001ZM32.1771 71.0881C25.75 80.0639 12.7313 80.0575 6.21043 71.181C-1.15624 61.153 5.45834 46.5651 17.6458 45.4622C31.2292 44.2324 40.2396 59.8324 32.1771 71.0902V71.0881ZM50.0542 31.261C52.0729 27.0584 56.1521 24.1298 60.8646 24.151C65.6271 24.1721 69.6896 27.0309 71.6521 31.3371C65.7979 37.0125 55.8417 37.059 50.0521 31.261H50.0542ZM59.6542 10.0238C68.3521 8.6609 68.5125 22.0401 59.7854 20.8864C54.1396 20.1385 54.0479 10.9027 59.6542 10.0238ZM64.9604 3.72294C68.3333 4.63151 71.4729 6.66205 73.7917 9.8188C74.65 10.9873 75.3188 12.217 75.8104 13.4827C75.9104 14.1229 76.3438 15.1265 76.4896 15.8365C76.7667 17.1888 76.8938 18.5347 76.8625 19.8659C76.7917 21.607 76.4417 23.3248 75.8438 24.9475H75.925C75.7542 25.4293 75.5604 25.9089 75.3417 26.3822C75.1688 26.752 74.1604 28.7276 73.8333 28.6473C72.1271 25.7948 69.5604 23.2635 66.4125 22.1606C71.5917 17.6494 69.7875 8.65245 63.0083 7.02548C54.0021 4.86393 48.5854 16.0393 55.3208 22.1606C53.3688 22.7501 51.7542 24.1531 50.2417 25.48L47.7479 28.6452C39.3688 15.9527 50.3646 0.215437 64.9604 3.72082V3.72294Z" fill="#404040"/>
</g>
<defs>
<clipPath id="clip0_48_284">
<rect width="80" height="81" fill="white"/>
</clipPath>
</defs>
</svg>
