<svg width="269" height="91" viewBox="0 0 269 91" fill="none" xmlns="http://www.w3.org/2000/svg">
<path d="M243.835 85.3123C243.197 85.3123 242.634 85.1856 242.146 84.9322C241.658 84.6789 241.278 84.3176 241.005 83.8483C240.743 83.3791 240.611 82.8348 240.611 82.2154V78.302C240.611 77.6921 240.743 77.1571 241.005 76.6973C241.278 76.2281 241.658 75.8668 242.146 75.6134C242.634 75.36 243.197 75.2333 243.835 75.2333C244.473 75.2333 245.036 75.36 245.524 75.6134C246.012 75.8574 246.387 76.2046 246.65 76.6551C246.922 77.1055 247.058 77.6311 247.058 78.2317V78.302C247.058 78.349 247.04 78.3912 247.002 78.4287C246.974 78.4663 246.936 78.485 246.889 78.485L245.242 78.5554C245.13 78.5554 245.074 78.5038 245.074 78.4006V78.2176C245.074 77.8328 244.961 77.5231 244.736 77.2885C244.51 77.0539 244.21 76.9366 243.835 76.9366C243.459 76.9366 243.159 77.0539 242.934 77.2885C242.709 77.5231 242.596 77.8328 242.596 78.2176V82.3421C242.596 82.7269 242.709 83.0366 242.934 83.2712C243.159 83.4964 243.459 83.609 243.835 83.609C244.21 83.609 244.51 83.4964 244.736 83.2712C244.961 83.0366 245.074 82.7269 245.074 82.3421V82.1591C245.074 82.0559 245.13 82.0043 245.242 82.0043L246.889 82.0746C246.936 82.0746 246.974 82.0934 247.002 82.131C247.04 82.1591 247.058 82.1966 247.058 82.2436V82.2858C247.058 82.8864 246.922 83.4166 246.65 83.8765C246.387 84.3363 246.012 84.6929 245.524 84.9463C245.036 85.1903 244.473 85.3123 243.835 85.3123ZM248.496 85.1997C248.449 85.1997 248.407 85.1856 248.369 85.1575C248.341 85.1199 248.327 85.0777 248.327 85.0308V75.5148C248.327 75.4679 248.341 75.4304 248.369 75.4022C248.407 75.3647 248.449 75.3459 248.496 75.3459H250.143C250.19 75.3459 250.228 75.3647 250.256 75.4022C250.293 75.4304 250.312 75.4679 250.312 75.5148V85.0308C250.312 85.0777 250.293 85.1199 250.256 85.1575C250.228 85.1856 250.19 85.1997 250.143 85.1997H248.496ZM257.915 75.3459C257.962 75.3459 257.999 75.3647 258.027 75.4022C258.065 75.4304 258.084 75.4679 258.084 75.5148V76.8944C258.084 76.9413 258.065 76.9835 258.027 77.0211C257.999 77.0492 257.962 77.0633 257.915 77.0633H255.775C255.728 77.0633 255.705 77.0867 255.705 77.1337V85.0308C255.705 85.0777 255.686 85.1199 255.648 85.1575C255.62 85.1856 255.583 85.1997 255.536 85.1997H253.889C253.842 85.1997 253.8 85.1856 253.762 85.1575C253.734 85.1199 253.72 85.0777 253.72 85.0308V77.1337C253.72 77.0867 253.696 77.0633 253.65 77.0633H251.58C251.533 77.0633 251.491 77.0492 251.454 77.0211C251.425 76.9835 251.411 76.9413 251.411 76.8944V75.5148C251.411 75.4679 251.425 75.4304 251.454 75.4022C251.491 75.3647 251.533 75.3459 251.58 75.3459H257.915ZM261.467 85.1856C261.42 85.1856 261.378 85.1716 261.341 85.1434C261.313 85.1059 261.298 85.0636 261.298 85.0167V81.413L261.284 81.3286L258.849 75.543C258.84 75.5242 258.835 75.4961 258.835 75.4585C258.835 75.3834 258.882 75.3459 258.976 75.3459H260.749C260.853 75.3459 260.918 75.3928 260.947 75.4867L262.256 79.0481C262.265 79.0763 262.279 79.0904 262.298 79.0904C262.317 79.0904 262.331 79.0763 262.34 79.0481L263.649 75.4867C263.677 75.3928 263.743 75.3459 263.846 75.3459H265.62C265.686 75.3459 265.728 75.3647 265.747 75.4022C265.766 75.4398 265.766 75.4867 265.747 75.543L263.297 81.3286L263.283 81.413V85.0167C263.283 85.0636 263.265 85.1059 263.227 85.1434C263.199 85.1716 263.161 85.1856 263.114 85.1856H261.467Z" fill="black"/>
<path d="M22.2344 2.28857C25.7724 2.28857 28.8834 3.08157 31.5674 4.66757C34.3123 6.25356 36.4168 8.51054 37.8808 11.4385C39.4058 14.3055 40.1683 17.5995 40.1683 21.3205C40.1683 24.9805 39.4058 28.2134 37.8808 31.0194C36.4168 33.8254 34.3123 36.0214 31.5674 37.6074C28.8834 39.1324 25.8029 39.8949 22.3259 39.8949H11.0715C10.7665 39.8949 10.614 40.0474 10.614 40.3524V65.3318C10.614 65.6368 10.492 65.9113 10.248 66.1553C10.065 66.3383 9.82096 66.4298 9.51596 66.4298H1.098C0.792996 66.4298 0.518498 66.3383 0.274499 66.1553C0.0914998 65.9113 0 65.6368 0 65.3318V3.38657C0 3.08157 0.0914998 2.83758 0.274499 2.65457C0.518498 2.41058 0.792996 2.28857 1.098 2.28857H22.2344ZM20.6789 31.3854C23.3629 31.3854 25.4979 30.5009 27.0839 28.732C28.7309 26.902 29.5544 24.4925 29.5544 21.5035C29.5544 18.4535 28.7309 16.0135 27.0839 14.1835C25.4979 12.3535 23.3629 11.4385 20.6789 11.4385H11.0715C10.7665 11.4385 10.614 11.591 10.614 11.896V30.9279C10.614 31.2329 10.7665 31.3854 11.0715 31.3854H20.6789Z" fill="black"/>
<path d="M61.6211 19.1245C63.3291 19.1245 64.8236 19.4905 66.1046 20.2225C66.5926 20.4665 66.7756 20.924 66.6536 21.595L65.0981 29.9214C65.0371 30.6534 64.6101 30.8669 63.8171 30.5619C63.0241 30.2569 62.1091 30.1044 61.0721 30.1044C60.6451 30.1044 60.0046 30.1654 59.1506 30.2874C57.0767 30.4704 55.3382 31.4159 53.9352 33.1239C52.5932 34.8319 51.9222 36.9669 51.9222 39.5289V65.3318C51.9222 65.6368 51.8002 65.9113 51.5562 66.1553C51.3732 66.3383 51.1292 66.4298 50.8242 66.4298H42.4062C42.1012 66.4298 41.8267 66.3383 41.5827 66.1553C41.3997 65.9113 41.3082 65.6368 41.3082 65.3318V20.7715C41.3082 20.4665 41.3997 20.2225 41.5827 20.0395C41.8267 19.7955 42.1012 19.6735 42.4062 19.6735H50.8242C51.1292 19.6735 51.3732 19.7955 51.5562 20.0395C51.8002 20.2225 51.9222 20.4665 51.9222 20.7715V24.706C51.9222 24.95 51.9527 25.1025 52.0137 25.1635C52.1357 25.1635 52.2577 25.072 52.3797 24.889C54.5757 21.046 57.6562 19.1245 61.6211 19.1245Z" fill="black"/>
<path d="M68.0158 66.4298C67.7108 66.4298 67.4363 66.3383 67.1923 66.1553C67.0093 65.9113 66.9178 65.6368 66.9178 65.3318V20.68C66.9178 20.375 67.0093 20.131 67.1923 19.948C67.4363 19.704 67.7108 19.582 68.0158 19.582H76.4338C76.7388 19.582 76.9828 19.704 77.1658 19.948C77.4098 20.131 77.5318 20.375 77.5318 20.68V65.3318C77.5318 65.6368 77.4098 65.9113 77.1658 66.1553C76.9828 66.3383 76.7388 66.4298 76.4338 66.4298H68.0158Z" fill="black"/>
<path d="M97.6107 66.9788C92.3037 66.9788 88.0642 65.7893 84.8922 63.4103C81.7203 61.0313 80.1343 57.9203 80.1343 54.0773V53.3453C80.1343 53.0403 80.2258 52.7963 80.4088 52.6133C80.6528 52.3693 80.9273 52.2473 81.2323 52.2473H89.1927C89.4977 52.2473 89.7417 52.3693 89.9247 52.6133C90.1687 52.7963 90.2907 53.0403 90.2907 53.3453V53.6198C90.2907 55.0838 90.9922 56.3648 92.3952 57.4628C93.7982 58.4998 95.5367 59.0183 97.6107 59.0183C99.6237 59.0183 101.24 58.5303 102.46 57.5543C103.741 56.5783 104.382 55.3583 104.382 53.8943C104.382 52.4303 103.741 51.3018 102.46 50.5088C101.24 49.7159 99.3187 48.8619 96.6957 47.9469L94.3167 47.1234C90.1687 45.7814 86.8442 44.1039 84.3432 42.0909C81.8423 40.0169 80.5918 36.9669 80.5918 32.9409C80.5918 28.671 82.1168 25.316 85.1667 22.876C88.2167 20.375 92.2427 19.1245 97.2447 19.1245C102.43 19.1245 106.547 20.4055 109.597 22.9675C112.708 25.4685 114.264 28.8235 114.264 33.0324V33.1239C114.264 33.4289 114.142 33.7034 113.898 33.9474C113.715 34.1304 113.471 34.2219 113.166 34.2219H105.48C105.175 34.2219 104.9 34.1304 104.656 33.9474C104.473 33.7034 104.382 33.4289 104.382 33.1239V32.7579C104.382 31.2329 103.741 29.9824 102.46 29.0064C101.179 27.9695 99.5017 27.451 97.4277 27.451C95.4147 27.451 93.7982 27.939 92.5782 28.9149C91.3582 29.8299 90.7482 31.0194 90.7482 32.4834C90.7482 33.6424 91.1752 34.6184 92.0292 35.4114C92.8832 36.1434 93.8287 36.7229 94.8657 37.1499C95.9637 37.5769 97.8547 38.2479 100.539 39.1629C103.406 40.1389 105.815 41.1454 107.767 42.1824C109.78 43.2194 111.488 44.6529 112.891 46.4829C114.294 48.3129 114.996 50.6308 114.996 53.4368C114.996 57.6458 113.41 60.9703 110.238 63.4103C107.127 65.7893 102.918 66.9788 97.6107 66.9788Z" fill="black"/>
<path d="M137.631 18.9415C142.084 18.9415 145.561 20.3445 148.062 23.1505C150.563 25.9565 151.813 29.8299 151.813 34.7709V65.3318C151.813 65.6368 151.691 65.9113 151.447 66.1553C151.264 66.3383 151.02 66.4298 150.715 66.4298H142.297C141.992 66.4298 141.718 66.3383 141.474 66.1553C141.291 65.9113 141.199 65.6368 141.199 65.3318V36.2349C141.199 33.7339 140.559 31.7514 139.278 30.2874C138.058 28.8234 136.38 28.0915 134.245 28.0915C132.049 28.0915 130.28 28.8539 128.938 30.3789C127.657 31.8429 127.017 33.8254 127.017 36.3264V65.3318C127.017 65.6368 126.895 65.9113 126.651 66.1553C126.468 66.3383 126.224 66.4298 125.919 66.4298H117.501C117.196 66.4298 116.921 66.3383 116.677 66.1553C116.494 65.9113 116.403 65.6368 116.403 65.3318V3.47807C116.403 3.17307 116.494 2.92907 116.677 2.74607C116.921 2.50207 117.196 2.38007 117.501 2.38007H125.919C126.224 2.38007 126.468 2.50207 126.651 2.74607C126.895 2.92907 127.017 3.17307 127.017 3.47807V23.1505C127.017 23.3335 127.078 23.4555 127.2 23.5165C127.322 23.5775 127.444 23.5165 127.566 23.3335C130.006 20.4055 133.361 18.9415 137.631 18.9415Z" fill="black"/>
<path d="M177.278 26.6275C177.278 26.9325 177.156 27.207 176.912 27.451C176.729 27.634 176.485 27.7255 176.18 27.7255H168.768C168.463 27.7255 168.311 27.878 168.311 28.183V51.1493C168.311 53.4063 168.738 55.0228 169.592 55.9988C170.507 56.9138 171.91 57.3408 173.801 57.2798H175.448C175.753 57.2798 175.997 57.4018 176.18 57.6458C176.424 57.8288 176.546 58.0728 176.546 58.3778V65.3318C176.546 66.0028 176.18 66.3993 175.448 66.5213H171.605C167.091 66.5213 163.705 65.7283 161.448 64.1423C159.191 62.5563 158.063 59.5673 158.063 55.1753V28.183C158.063 27.878 157.91 27.7255 157.605 27.7255H153.396C153.091 27.7255 152.817 27.634 152.573 27.451C152.39 27.207 152.298 26.9325 152.298 26.6275V20.7715C152.298 20.4665 152.39 20.2225 152.573 20.0395C152.817 19.7955 153.091 19.6735 153.396 19.6735H157.605C157.91 19.6735 158.063 19.521 158.063 19.216V8.78504C158.063 8.48004 158.154 8.23605 158.337 8.05305C158.581 7.80905 158.856 7.68705 159.161 7.68705H167.213C167.518 7.68705 167.762 7.80905 167.945 8.05305C168.189 8.23605 168.311 8.48004 168.311 8.78504V19.216C168.311 19.521 168.463 19.6735 168.768 19.6735H176.18C176.485 19.6735 176.729 19.7955 176.912 20.0395C177.156 20.2225 177.278 20.4665 177.278 20.7715V26.6275Z" fill="black"/>
<path d="M180.5 66.4298C180.195 66.4298 179.92 66.3383 179.676 66.1553C179.493 65.9113 179.402 65.6368 179.402 65.3318V20.68C179.402 20.375 179.493 20.131 179.676 19.948C179.92 19.704 180.195 19.582 180.5 19.582H188.918C189.223 19.582 189.467 19.704 189.65 19.948C189.894 20.131 190.016 20.375 190.016 20.68V65.3318C190.016 65.6368 189.894 65.9113 189.65 66.1553C189.467 66.3383 189.223 66.4298 188.918 66.4298H180.5Z" fill="black"/>
<path d="M215.493 18.9415C219.946 18.9415 223.423 20.3445 225.924 23.1505C228.425 25.9565 229.676 29.8299 229.676 34.7709V65.3318C229.676 65.6368 229.554 65.9113 229.31 66.1553C229.127 66.3383 228.883 66.4298 228.578 66.4298H220.16C219.855 66.4298 219.58 66.3383 219.336 66.1553C219.153 65.9113 219.062 65.6368 219.062 65.3318V36.2349C219.062 33.7339 218.421 31.7514 217.14 30.2874C215.92 28.8234 214.243 28.0915 212.108 28.0915C209.912 28.0915 208.143 28.8539 206.801 30.3789C205.52 31.8429 204.879 33.8254 204.879 36.3264V65.3318C204.879 65.6368 204.757 65.9113 204.513 66.1553C204.33 66.3383 204.086 66.4298 203.781 66.4298H195.363C195.058 66.4298 194.784 66.3383 194.54 66.1553C194.357 65.9113 194.265 65.6368 194.265 65.3318V20.7715C194.265 20.4665 194.357 20.2225 194.54 20.0395C194.784 19.7955 195.058 19.6735 195.363 19.6735H203.781C204.086 19.6735 204.33 19.7955 204.513 20.0395C204.757 20.2225 204.879 20.4665 204.879 20.7715V23.1505C204.879 23.3335 204.94 23.4555 205.062 23.5165C205.184 23.5775 205.306 23.5165 205.428 23.3335C207.868 20.4055 211.223 18.9415 215.493 18.9415Z" fill="black"/>
<path d="M268.412 35.2284C268.595 37.2414 268.686 39.5594 268.686 42.1824L268.595 46.1169C268.595 46.8489 268.229 47.2149 267.497 47.2149H242.975C242.67 47.2149 242.518 47.3674 242.518 47.6724C242.64 49.3804 242.762 50.6308 242.884 51.4238C243.189 53.4368 244.043 55.0533 245.446 56.2733C246.849 57.4933 248.618 58.1033 250.753 58.1033C252.583 58.0423 254.107 57.5848 255.327 56.7308C256.608 55.8768 257.584 54.6873 258.255 53.1623C258.56 52.4913 259.018 52.2473 259.628 52.4303L267.131 53.9858C267.863 54.2298 268.107 54.6873 267.863 55.3583C266.643 59.1403 264.538 62.0683 261.549 64.1423C258.621 66.1553 255.022 67.1618 250.753 67.1618C245.69 67.1618 241.633 65.9418 238.583 63.5018C235.533 61.0618 233.551 57.6763 232.636 53.3453C232.331 51.6983 232.117 49.9599 231.995 48.1299C231.934 46.2999 231.904 43.8599 231.904 40.8099C231.904 37.6379 232.056 35.2284 232.361 33.5814C232.971 29.1284 234.862 25.5905 238.034 22.9675C241.206 20.2835 245.232 18.9415 250.112 18.9415C255.419 18.9415 259.689 20.436 262.922 23.425C266.216 26.414 268.046 30.3484 268.412 35.2284ZM250.204 28.0915C248.191 28.0915 246.513 28.7014 245.171 29.9214C243.89 31.0804 243.097 32.6664 242.792 34.6794C242.609 36.0214 242.518 37.5464 242.518 39.2544C242.518 39.5594 242.67 39.7119 242.975 39.7119H257.523C257.828 39.7119 257.981 39.5594 257.981 39.2544C257.859 37.1804 257.737 35.6859 257.615 34.7709C257.371 32.7579 256.578 31.1414 255.236 29.9214C253.894 28.7014 252.217 28.0915 250.204 28.0915Z" fill="black"/>
<path d="M67.5583 11.4374C68.7783 12.6574 70.3338 13.2674 72.2248 13.2674C74.1158 13.2674 75.6713 12.6574 76.8913 11.4374C78.1113 10.2175 78.7213 8.66196 78.7213 6.77097C78.7213 4.81898 78.1113 3.26349 76.8913 2.10449C75.7323 0.884496 74.1768 0.274497 72.2248 0.274497C70.3338 0.274497 68.7783 0.884496 67.5583 2.10449C66.3993 3.32449 65.8198 4.87998 65.8198 6.77097C65.8198 8.66196 66.3993 10.2175 67.5583 11.4374Z" fill="#7EC44A"/>
<path d="M180.042 11.4374C181.262 12.6574 182.818 13.2674 184.709 13.2674C186.6 13.2674 188.155 12.6574 189.375 11.4374C190.595 10.2175 191.205 8.66196 191.205 6.77097C191.205 4.81898 190.595 3.26349 189.375 2.10449C188.216 0.884496 186.661 0.274497 184.709 0.274497C182.818 0.274497 181.262 0.884496 180.042 2.10449C178.883 3.32449 178.304 4.87998 178.304 6.77097C178.304 8.66196 178.883 10.2175 180.042 11.4374Z" fill="#7EC44A"/>
<path d="M253.589 11.1629C254.809 12.3829 256.364 12.9929 258.255 12.9929C260.085 12.9929 261.61 12.3829 262.83 11.1629C264.05 9.94296 264.66 8.38746 264.66 6.49647C264.66 4.60548 264.05 3.04998 262.83 1.82999C261.671 0.609997 260.146 0 258.255 0C256.364 0 254.809 0.609997 253.589 1.82999C252.369 3.04998 251.759 4.60548 251.759 6.49647C251.759 8.38746 252.369 9.94296 253.589 11.1629Z" fill="#7EC44A"/>
<path d="M237.028 11.1629C238.248 12.3829 239.803 12.9929 241.694 12.9929C243.524 12.9929 245.049 12.3829 246.269 11.1629C247.489 9.94296 248.099 8.38746 248.099 6.49647C248.099 4.60548 247.489 3.04998 246.269 1.82999C245.11 0.609997 243.585 0 241.694 0C239.803 0 238.248 0.609997 237.028 1.82999C235.808 3.04998 235.198 4.60548 235.198 6.49647C235.198 8.38746 235.808 9.94296 237.028 11.1629Z" fill="#7EC44A"/>
</svg>
