<svg width="444" height="90" viewBox="0 0 444 90" fill="none" xmlns="http://www.w3.org/2000/svg">
<path d="M149.684 53.105L142.283 27.4668L140.98 22.1379H141.691L140.388 27.4668L133.046 53.105H123.987L111.73 12.8418H120.256L127.895 41.2037L129.256 46.9471H128.487L129.789 41.2037L137.901 12.8418H145.302L153.296 41.2037L154.658 46.9471H153.947L155.191 41.2037L162.829 12.8418H170.881L158.684 53.105H149.684ZM180.64 31.7892H173.002C173.357 29.4208 174.127 27.4076 175.311 25.7497C176.535 24.0523 178.133 22.7497 180.107 21.8418C182.12 20.9339 184.469 20.48 187.153 20.48C190.074 20.48 192.522 21.0129 194.495 22.0787C196.508 23.1444 198.008 24.6247 198.995 26.5194C199.982 28.4142 200.476 30.5852 200.476 33.0326V45.3484C200.476 47.2826 200.554 48.8616 200.712 50.0852C200.91 51.2695 201.147 52.276 201.423 53.105H193.548C193.232 52.3155 193.035 51.3287 192.956 50.1445C192.877 48.9208 192.837 47.6971 192.837 46.4734V33.0326C192.837 30.98 192.324 29.4208 191.298 28.355C190.311 27.2892 188.772 26.7563 186.679 26.7563C184.864 26.7563 183.462 27.23 182.476 28.1773C181.489 29.0852 180.877 30.2892 180.64 31.7892ZM193.844 33.8023V38.48C190.923 38.48 188.535 38.6379 186.679 38.9537C184.824 39.23 183.383 39.6445 182.357 40.1971C181.331 40.7497 180.601 41.3813 180.166 42.0918C179.772 42.8023 179.574 43.5721 179.574 44.401C179.574 45.6247 180.028 46.5918 180.936 47.3023C181.844 48.0129 183.048 48.3681 184.548 48.3681C186.087 48.3681 187.489 47.9931 188.752 47.2431C190.015 46.4931 191.002 45.4668 191.712 44.1642C192.462 42.8616 192.837 41.4208 192.837 39.8418H195.739C195.581 42.3681 195.087 44.5392 194.258 46.355C193.469 48.1313 192.443 49.5918 191.179 50.7366C189.956 51.8418 188.594 52.651 187.094 53.1642C185.594 53.7168 184.094 53.9931 182.594 53.9931C180.502 53.9931 178.647 53.6576 177.028 52.9866C175.449 52.276 174.206 51.2497 173.298 49.9076C172.39 48.526 171.936 46.8287 171.936 44.8155C171.936 42.6445 172.528 40.7892 173.712 39.2497C174.936 37.6708 176.772 36.4668 179.219 35.6379C181.429 34.8484 183.679 34.355 185.969 34.1576C188.298 33.9208 190.923 33.8023 193.844 33.8023ZM214.038 29.8944C214.038 30.9602 214.393 31.7694 215.104 32.3221C215.814 32.8747 216.762 33.3089 217.946 33.6247C219.17 33.901 220.492 34.1576 221.913 34.3944C223.334 34.5918 224.755 34.8681 226.176 35.2234C227.597 35.5787 228.9 36.0721 230.084 36.7037C231.268 37.3352 232.216 38.2037 232.926 39.3089C233.676 40.4142 234.051 41.8945 234.051 43.7497C234.051 45.7629 233.459 47.5392 232.275 49.0787C231.13 50.6181 229.551 51.8221 227.538 52.6905C225.525 53.5589 223.176 53.9931 220.492 53.9931C216.584 53.9931 213.308 53.0852 210.663 51.2695C208.058 49.4142 206.479 46.5721 205.926 42.7431H213.505C213.781 44.4405 214.551 45.7629 215.814 46.7102C217.117 47.6576 218.755 48.1313 220.729 48.1313C222.623 48.1313 224.045 47.776 224.992 47.0655C225.939 46.3155 226.413 45.3681 226.413 44.2234C226.413 43.1971 226.058 42.4076 225.347 41.855C224.637 41.3023 223.689 40.8879 222.505 40.6116C221.36 40.3352 220.077 40.0787 218.656 39.8418C217.275 39.605 215.893 39.3287 214.512 39.0129C213.13 38.6576 211.847 38.1642 210.663 37.5326C209.518 36.8616 208.591 35.9734 207.88 34.8681C207.17 33.7234 206.814 32.2234 206.814 30.3681C206.814 28.6313 207.268 27.0326 208.176 25.5721C209.084 24.0721 210.446 22.8484 212.262 21.901C214.077 20.9537 216.367 20.48 219.13 20.48C221.577 20.48 223.768 20.8747 225.702 21.6642C227.637 22.4537 229.235 23.6773 230.498 25.3352C231.801 26.9931 232.591 29.1444 232.867 31.7892H225.288C224.972 29.855 224.262 28.4734 223.156 27.6444C222.091 26.8155 220.65 26.401 218.834 26.401C217.334 26.401 216.15 26.7366 215.281 27.4076C214.452 28.0787 214.038 28.9076 214.038 29.8944ZM239.216 53.105V10.4734H246.795V53.105H239.216ZM246.795 34.6905H244.367C244.564 31.4931 245.176 28.8484 246.203 26.7563C247.229 24.6642 248.591 23.105 250.288 22.0787C252.025 21.0129 253.999 20.48 256.209 20.48C258.341 20.48 260.196 20.9142 261.775 21.7826C263.393 22.6116 264.637 23.8747 265.505 25.5721C266.413 27.2694 266.867 29.401 266.867 31.9668V53.105H259.288V33.5063C259.288 32.0458 259.071 30.8221 258.637 29.8352C258.242 28.8089 257.63 28.0392 256.801 27.526C255.972 27.0129 254.907 26.7563 253.604 26.7563C252.578 26.7563 251.63 26.9734 250.762 27.4076C249.933 27.8023 249.222 28.3747 248.63 29.1247C248.038 29.8352 247.584 30.6839 247.268 31.6708C246.953 32.6181 246.795 33.6247 246.795 34.6905ZM273.852 53.105V21.3681H281.431V53.105H273.852ZM273.852 17.8155V10.4734H281.431V17.8155H273.852ZM288.365 53.105V21.3681H295.944V53.105H288.365ZM295.944 34.6905H293.517C293.714 31.4931 294.326 28.8484 295.352 26.7563C296.378 24.6642 297.74 23.105 299.438 22.0787C301.174 21.0129 303.148 20.48 305.359 20.48C307.49 20.48 309.345 20.9142 310.924 21.7826C312.543 22.6116 313.786 23.8747 314.655 25.5721C315.563 27.2694 316.017 29.401 316.017 31.9668V53.105H308.438V33.5063C308.438 32.0458 308.22 30.8221 307.786 29.8352C307.392 28.8089 306.78 28.0392 305.951 27.526C305.122 27.0129 304.056 26.7563 302.753 26.7563C301.727 26.7563 300.78 26.9734 299.911 27.4076C299.082 27.8023 298.372 28.3747 297.78 29.1247C297.188 29.8352 296.734 30.6839 296.418 31.6708C296.102 32.6181 295.944 33.6247 295.944 34.6905ZM334.547 53.2234C331.863 53.2234 329.534 52.5721 327.56 51.2695C325.626 49.9273 324.126 48.0523 323.06 45.6445C322.034 43.1971 321.521 40.276 321.521 36.8813C321.521 31.5918 322.685 27.5458 325.014 24.7431C327.383 21.901 330.56 20.48 334.547 20.48C338.416 20.48 341.337 21.901 343.31 24.7431C345.323 27.5852 346.33 31.6313 346.33 36.8813C346.33 42.2102 345.264 46.276 343.133 49.0787C341.001 51.8418 338.139 53.2234 334.547 53.2234ZM336.264 46.9471C338.514 46.9471 340.231 46.0984 341.416 44.401C342.639 42.6642 343.251 40.1576 343.251 36.8813C343.251 33.6444 342.639 31.1576 341.416 29.4208C340.192 27.6444 338.475 26.7563 336.264 26.7563C334.014 26.7563 332.297 27.6247 331.113 29.3616C329.929 31.0984 329.337 33.605 329.337 36.8813C329.337 40.1181 329.929 42.605 331.113 44.3418C332.297 46.0787 334.014 46.9471 336.264 46.9471ZM350.83 54.1116C350.83 56.9931 350.218 59.3813 348.994 61.276C347.81 63.2102 346.172 64.651 344.08 65.5984C342.027 66.5852 339.679 67.0787 337.034 67.0787C333.126 67.0787 329.85 66.1708 327.205 64.355C324.56 62.5392 322.962 59.7366 322.409 55.9471H330.047C330.284 57.605 331.014 58.8681 332.238 59.7366C333.501 60.6445 335.06 61.0984 336.916 61.0984C338.81 61.0984 340.33 60.5852 341.475 59.5589C342.659 58.5326 343.251 56.7563 343.251 54.23V21.3681H350.83V54.1116ZM358.817 43.2168V14.0852H366.396V42.5655C366.396 44.2234 366.731 45.4866 367.402 46.355C368.074 47.2234 369.455 47.6576 371.547 47.6576H372.968V53.2234C372.574 53.4602 371.962 53.6379 371.133 53.7563C370.304 53.9142 369.376 53.9931 368.35 53.9931C365.113 53.9931 362.705 53.0852 361.126 51.2695C359.587 49.4537 358.817 46.7695 358.817 43.2168ZM354.731 27.23V21.3681H373.087V27.23H354.731ZM391.265 53.9931C388.107 53.9931 385.383 53.3221 383.094 51.98C380.844 50.6379 379.107 48.7234 377.883 46.2366C376.66 43.7102 376.048 40.73 376.048 37.2958C376.048 33.7037 376.66 30.6642 377.883 28.1773C379.146 25.651 380.923 23.7366 383.212 22.4339C385.502 21.1313 388.186 20.48 391.265 20.48C394.383 20.48 397.067 21.1708 399.317 22.5523C401.607 23.8944 403.363 25.8287 404.587 28.355C405.811 30.8418 406.423 33.8221 406.423 37.2958C406.423 40.8484 405.791 43.8681 404.528 46.355C403.304 48.8418 401.548 50.7366 399.258 52.0392C397.008 53.3418 394.344 53.9931 391.265 53.9931ZM391.265 47.7168C393.633 47.7168 395.449 46.8287 396.712 45.0523C397.975 43.2366 398.607 40.651 398.607 37.2958C398.607 33.901 397.975 31.2958 396.712 29.48C395.449 27.6642 393.633 26.7563 391.265 26.7563C388.857 26.7563 387.021 27.6642 385.758 29.48C384.495 31.2563 383.863 33.8616 383.863 37.2958C383.863 40.6116 384.495 43.1773 385.758 44.9931C387.021 46.8089 388.857 47.7168 391.265 47.7168ZM411.932 53.105V21.3681H419.511V53.105H411.932ZM419.511 34.6905H417.084C417.281 31.4931 417.893 28.8484 418.919 26.7563C419.946 24.6642 421.307 23.105 423.005 22.0787C424.742 21.0129 426.715 20.48 428.926 20.48C431.057 20.48 432.913 20.9142 434.492 21.7826C436.11 22.6116 437.353 23.8747 438.222 25.5721C439.13 27.2694 439.584 29.401 439.584 31.9668V53.105H432.005V33.5063C432.005 32.0458 431.788 30.8221 431.353 29.8352C430.959 28.8089 430.347 28.0392 429.518 27.526C428.689 27.0129 427.623 26.7563 426.321 26.7563C425.294 26.7563 424.347 26.9734 423.478 27.4076C422.649 27.8023 421.939 28.3747 421.347 29.1247C420.755 29.8352 420.301 30.6839 419.985 31.6708C419.669 32.6181 419.511 33.6247 419.511 34.6905Z" fill="#3C3B39"/>
<path d="M130.953 78.3687L126.768 65.3571L126.335 63.8899H126.527L126.094 65.3571L121.91 78.3687H119.985L114.718 62.014H116.474L120.659 75.5306L121.14 77.1421H120.875L121.308 75.5306L125.613 62.014H127.369L131.626 75.5306L132.083 77.1421H131.843L132.251 75.5306L136.436 62.014H138.12L132.853 78.3687H130.953ZM149.729 71.0571L148.863 71.8989C148.863 70.2635 148.51 68.9968 147.805 68.0989C147.099 67.1849 146.113 66.728 144.846 66.728C143.548 66.728 142.545 67.1849 141.84 68.0989C141.15 69.0128 140.806 70.3196 140.806 72.0192C140.806 73.6867 141.166 74.9855 141.888 75.9154C142.626 76.8294 143.652 77.2864 144.967 77.2864C145.977 77.2864 146.818 77.0298 147.492 76.5167C148.181 76.0036 148.654 75.242 148.911 74.2319H150.522C150.17 75.723 149.504 76.8294 148.526 77.5509C147.548 78.2724 146.362 78.6332 144.967 78.6332C143.764 78.6332 142.73 78.3687 141.864 77.8395C141.014 77.3104 140.357 76.5568 139.892 75.5787C139.443 74.5846 139.218 73.3981 139.218 72.0192C139.218 70.5761 139.443 69.3656 139.892 68.3875C140.357 67.4094 141.006 66.6638 141.84 66.1507C142.69 65.6377 143.692 65.3811 144.846 65.3811C146.017 65.3811 147.019 65.6457 147.853 66.1748C148.686 66.6879 149.328 67.4254 149.777 68.3875C150.226 69.3335 150.45 70.4799 150.45 71.8268V72.2597H139.892V71.0571H149.729ZM158.997 65.3811C160.104 65.3811 161.05 65.6457 161.835 66.1748C162.621 66.6879 163.222 67.4415 163.639 68.4356C164.056 69.4137 164.265 70.5922 164.265 71.9711C164.265 74.1357 163.792 75.7872 162.846 76.9256C161.9 78.064 160.617 78.6332 158.997 78.6332C157.506 78.6332 156.328 78.064 155.462 76.9256C154.596 75.7711 154.163 74.1277 154.163 71.9951C154.163 70.6322 154.356 69.4618 154.74 68.4837C155.141 67.4896 155.702 66.728 156.424 66.1988C157.162 65.6537 158.019 65.3811 158.997 65.3811ZM158.901 66.728C157.667 66.728 156.729 67.1769 156.087 68.0748C155.446 68.9727 155.125 70.2795 155.125 71.9951C155.125 73.6627 155.454 74.9614 156.111 75.8914C156.769 76.8214 157.699 77.2864 158.901 77.2864C160.12 77.2864 161.05 76.8294 161.691 75.9154C162.349 75.0015 162.677 73.6867 162.677 71.9711C162.677 70.3196 162.349 69.0369 161.691 68.1229C161.034 67.1929 160.104 66.728 158.901 66.728ZM155.125 78.3687H153.562V61.0519H155.125V78.3687ZM167.471 64.5393C167.471 63.2566 167.728 62.3266 168.241 61.7494C168.77 61.1561 169.611 60.8595 170.766 60.8595C170.958 60.8595 171.135 60.8756 171.295 60.9076C171.455 60.9237 171.584 60.9477 171.68 60.9798V62.1102H171.439C170.493 62.1102 169.852 62.3106 169.515 62.7114C169.195 63.0963 169.034 63.7056 169.034 64.5393V78.3687H167.471V64.5393ZM165.547 66.8963V65.6457H171.68V66.8963H165.547ZM173.532 78.3687V61.0519H175.095V78.3687H173.532ZM183.742 78.6332C182.556 78.6332 181.538 78.3687 180.688 77.8395C179.838 77.3104 179.189 76.5568 178.74 75.5787C178.291 74.5846 178.066 73.3981 178.066 72.0192C178.066 70.5761 178.291 69.3656 178.74 68.3875C179.205 67.4094 179.862 66.6638 180.712 66.1507C181.562 65.6377 182.572 65.3811 183.742 65.3811C184.929 65.3811 185.939 65.6457 186.773 66.1748C187.623 66.7039 188.272 67.4655 188.721 68.4596C189.17 69.4537 189.394 70.6403 189.394 72.0192C189.394 73.4462 189.162 74.6488 188.697 75.6268C188.248 76.6049 187.599 77.3505 186.749 77.8636C185.915 78.3767 184.913 78.6332 183.742 78.6332ZM183.742 77.2864C185.057 77.2864 186.059 76.8294 186.749 75.9154C187.454 75.0015 187.807 73.7028 187.807 72.0192C187.807 70.3356 187.454 69.0369 186.749 68.1229C186.043 67.1929 185.041 66.728 183.742 66.728C182.428 66.728 181.417 67.1849 180.712 68.0989C180.006 69.0128 179.654 70.3196 179.654 72.0192C179.654 73.6867 180.006 74.9855 180.712 75.9154C181.433 76.8294 182.444 77.2864 183.742 77.2864ZM203.381 78.3687L200.303 68.2913L199.942 66.728H200.062L199.701 68.2913L196.623 78.3687H194.723L190.754 65.6457H192.438L195.444 76.0357L195.805 77.4547H195.685L196.046 76.0357L199.244 65.6457H200.928L204.151 76.0357L204.488 77.4307H204.343L204.68 76.0357L207.686 65.6457H209.298L205.329 78.3687H203.381ZM220.705 78.3687V62.014H222.341V78.3687H220.705ZM214.909 63.4089V62.014H228.113V63.4089H214.909ZM238.393 71.0571L237.527 71.8989C237.527 70.2635 237.175 68.9968 236.469 68.0989C235.764 67.1849 234.778 66.728 233.511 66.728C232.212 66.728 231.21 67.1849 230.504 68.0989C229.815 69.0128 229.47 70.3196 229.47 72.0192C229.47 73.6867 229.831 74.9855 230.553 75.9154C231.29 76.8294 232.316 77.2864 233.631 77.2864C234.641 77.2864 235.483 77.0298 236.156 76.5167C236.846 76.0036 237.319 75.242 237.575 74.2319H239.187C238.834 75.723 238.169 76.8294 237.191 77.5509C236.213 78.2724 235.026 78.6332 233.631 78.6332C232.429 78.6332 231.394 78.3687 230.529 77.8395C229.679 77.3104 229.021 76.5568 228.556 75.5787C228.107 74.5846 227.883 73.3981 227.883 72.0192C227.883 70.5761 228.107 69.3656 228.556 68.3875C229.021 67.4094 229.671 66.6638 230.504 66.1507C231.354 65.6377 232.356 65.3811 233.511 65.3811C234.681 65.3811 235.683 65.6457 236.517 66.1748C237.351 66.6879 237.992 67.4254 238.441 68.3875C238.89 69.3335 239.115 70.4799 239.115 71.8268V72.2597H228.556V71.0571H238.393ZM242.227 78.3687V65.6457H243.79V78.3687H242.227ZM243.79 70.7685H242.996C243.076 69.6141 243.317 68.636 243.718 67.8343C244.119 67.0326 244.656 66.4233 245.329 66.0064C246.003 65.5895 246.756 65.3811 247.59 65.3811C248.424 65.3811 249.129 65.5575 249.706 65.9102C250.284 66.2469 250.725 66.752 251.029 67.4254C251.334 68.0828 251.486 68.8926 251.486 69.8546V78.3687H249.923V70.1913C249.923 69.5018 249.827 68.9006 249.634 68.3875C249.442 67.8584 249.137 67.4495 248.72 67.1609C248.319 66.8562 247.798 66.7039 247.157 66.7039C246.628 66.7039 246.155 66.8242 245.738 67.0647C245.321 67.3052 244.968 67.6259 244.68 68.0267C244.391 68.4115 244.167 68.8445 244.006 69.3255C243.862 69.8065 243.79 70.2875 243.79 70.7685ZM251.486 70.7685H250.524C250.604 69.6141 250.853 68.636 251.27 67.8343C251.687 67.0326 252.232 66.4233 252.905 66.0064C253.579 65.5895 254.34 65.3811 255.19 65.3811C256.04 65.3811 256.761 65.5575 257.355 65.9102C257.948 66.2469 258.397 66.752 258.701 67.4254C259.022 68.0828 259.182 68.8926 259.182 69.8546V78.3687H257.619V70.1913C257.619 69.5018 257.523 68.9006 257.331 68.3875C257.138 67.8584 256.833 67.4495 256.417 67.1609C256.016 66.8562 255.495 66.7039 254.853 66.7039C254.324 66.7039 253.851 66.8242 253.434 67.0647C253.017 67.3052 252.665 67.6259 252.376 68.0267C252.087 68.4115 251.863 68.8445 251.703 69.3255C251.558 69.8065 251.486 70.2875 251.486 70.7685ZM268.355 65.3811C269.461 65.3811 270.407 65.6457 271.193 66.1748C271.979 66.6879 272.58 67.4415 272.997 68.4356C273.414 69.4137 273.622 70.5922 273.622 71.9711C273.622 74.1357 273.149 75.7872 272.203 76.9256C271.257 78.064 269.974 78.6332 268.355 78.6332C266.864 78.6332 265.685 78.064 264.819 76.9256C263.954 75.7711 263.521 74.1277 263.521 71.9951C263.521 70.6322 263.713 69.4618 264.098 68.4837C264.499 67.4896 265.06 66.728 265.782 66.1988C266.519 65.6537 267.377 65.3811 268.355 65.3811ZM268.259 66.728C267.024 66.728 266.078 67.1769 265.421 68.0748C264.779 68.9727 264.459 70.2795 264.459 71.9951C264.459 73.6627 264.787 74.9614 265.445 75.8914C266.118 76.8214 267.056 77.2864 268.259 77.2864C269.477 77.2864 270.407 76.8294 271.049 75.9154C271.69 75.0015 272.011 73.6867 272.011 71.9711C272.011 70.3196 271.682 69.0369 271.025 68.1229C270.367 67.1929 269.445 66.728 268.259 66.728ZM264.459 83.6599H262.919V65.6457H264.459V83.6599ZM276.635 78.3687V61.0519H278.199V78.3687H276.635ZM283.268 69.7824H281.704C281.849 68.8525 282.129 68.0588 282.546 67.4014C282.979 66.744 283.556 66.2469 284.278 65.9102C285.015 65.5575 285.897 65.3811 286.923 65.3811C288.014 65.3811 288.911 65.5815 289.617 65.9824C290.339 66.3832 290.876 66.9524 291.228 67.69C291.581 68.4276 291.758 69.2934 291.758 70.2875V75.3863C291.758 76.0918 291.79 76.6851 291.854 77.1661C291.934 77.6311 292.062 78.0319 292.239 78.3687H290.579C290.403 78.048 290.29 77.6471 290.242 77.1661C290.21 76.6851 290.194 76.2201 290.194 75.7711V70.3597C290.194 69.1892 289.922 68.2913 289.376 67.666C288.831 67.0406 287.965 66.728 286.779 66.728C285.721 66.728 284.903 67.0005 284.326 67.5457C283.765 68.0909 283.412 68.8364 283.268 69.7824ZM290.459 70.7926V71.9711C288.887 71.9711 287.605 72.0432 286.611 72.1875C285.616 72.3318 284.847 72.5403 284.302 72.8129C283.757 73.0854 283.38 73.4061 283.171 73.7749C282.963 74.1437 282.859 74.5445 282.859 74.9775C282.859 75.699 283.123 76.2682 283.652 76.6851C284.181 77.0859 284.879 77.2864 285.745 77.2864C286.579 77.2864 287.332 77.0859 288.006 76.6851C288.679 76.2682 289.208 75.723 289.593 75.0496C289.994 74.3762 290.194 73.6466 290.194 72.861H291.06C290.996 73.8711 290.787 74.745 290.435 75.4825C290.082 76.2201 289.633 76.8214 289.088 77.2864C288.559 77.7353 287.99 78.072 287.38 78.2965C286.787 78.521 286.194 78.6332 285.6 78.6332C284.719 78.6332 283.949 78.4969 283.292 78.2243C282.65 77.9518 282.153 77.5509 281.8 77.0218C281.448 76.4766 281.271 75.8112 281.271 75.0256C281.271 74.1597 281.504 73.4382 281.969 72.861C282.434 72.2837 283.123 71.8428 284.037 71.5382C284.935 71.2335 285.881 71.0331 286.875 70.9369C287.869 70.8407 289.064 70.7926 290.459 70.7926ZM295.783 74.8813V62.7114H297.347V74.8813C297.347 75.715 297.507 76.3323 297.828 76.7332C298.164 77.118 298.814 77.3104 299.776 77.3104H300.161V78.4408C300.064 78.4889 299.92 78.521 299.728 78.537C299.535 78.553 299.327 78.5611 299.102 78.5611C297.948 78.5611 297.106 78.2644 296.577 77.6712C296.048 77.0779 295.783 76.1479 295.783 74.8813ZM293.859 66.8963V65.6457H300.185V66.8963H293.859ZM312.214 71.0571L311.348 71.8989C311.348 70.2635 310.995 68.9968 310.29 68.0989C309.584 67.1849 308.598 66.728 307.332 66.728C306.033 66.728 305.031 67.1849 304.325 68.0989C303.636 69.0128 303.291 70.3196 303.291 72.0192C303.291 73.6867 303.652 74.9855 304.373 75.9154C305.111 76.8294 306.137 77.2864 307.452 77.2864C308.462 77.2864 309.304 77.0298 309.977 76.5167C310.667 76.0036 311.14 75.242 311.396 74.2319H313.008C312.655 75.723 311.989 76.8294 311.011 77.5509C310.033 78.2724 308.847 78.6332 307.452 78.6332C306.249 78.6332 305.215 78.3687 304.349 77.8395C303.499 77.3104 302.842 76.5568 302.377 75.5787C301.928 74.5846 301.704 73.3981 301.704 72.0192C301.704 70.5761 301.928 69.3656 302.377 68.3875C302.842 67.4094 303.491 66.6638 304.325 66.1507C305.175 65.6377 306.177 65.3811 307.332 65.3811C308.502 65.3811 309.504 65.6457 310.338 66.1748C311.172 66.6879 311.813 67.4254 312.262 68.3875C312.711 69.3335 312.935 70.4799 312.935 71.8268V72.2597H302.377V71.0571H312.214Z" fill="#3C3B39"/>
<rect x="4.14474" y="4.14474" width="81.7105" height="81.7105" stroke="#A5F211" stroke-width="8.28947"/>
<path d="M40.8552 41.0275C64.6909 43.0179 83.6924 62.0194 85.6829 85.8552H40.8552V41.0275Z" stroke="#A5F211" stroke-width="8.28947"/>
</svg>
