<svg width="476" height="90" viewBox="0 0 476 90" fill="none" xmlns="http://www.w3.org/2000/svg">
<g clip-path="url(#clip0_1126_1714)">
<path d="M122.945 85.0084C117.958 85.0084 113.682 83.7701 110.116 81.2935C106.55 78.7839 103.792 75.3993 101.844 71.1396C99.9289 66.8799 98.9713 62.0753 98.9713 56.7259C98.9713 51.3765 99.9289 46.5719 101.844 42.3122C103.792 38.0525 106.55 34.7009 110.116 32.2573C113.682 29.7807 117.942 28.5424 122.895 28.5424C127.947 28.5424 132.19 29.7642 135.625 32.2078C139.059 34.6513 141.651 38.003 143.401 42.2627C145.184 46.5224 146.076 51.3435 146.076 56.7259C146.076 62.0423 145.184 66.8468 143.401 71.1396C141.651 75.3993 139.059 78.7839 135.625 81.2935C132.19 83.7701 127.964 85.0084 122.945 85.0084ZM124.034 76.9348C127.634 76.9348 130.589 76.0762 132.9 74.3591C135.212 72.609 136.912 70.215 138.002 67.177C139.125 64.1061 139.686 60.6224 139.686 56.7259C139.686 52.7634 139.125 49.2796 138.002 46.2747C136.912 43.2368 135.228 40.8758 132.95 39.1917C130.672 37.4746 127.782 36.6161 124.282 36.6161C120.65 36.6161 117.645 37.5076 115.267 39.2908C112.923 41.0739 111.173 43.4844 110.017 46.5224C108.894 49.5603 108.333 52.9615 108.333 56.7259C108.333 60.5233 108.911 63.9575 110.066 67.0285C111.222 70.0664 112.956 72.4769 115.267 74.2601C117.612 76.0432 120.534 76.9348 124.034 76.9348ZM139.686 83.5225V44.1449H138.696V12.197H147.562V83.5225H139.686ZM178.676 85.0084C173.426 85.0084 168.836 83.8527 164.906 81.5412C161.01 79.1967 157.972 75.9441 155.793 71.7835C153.613 67.5898 152.523 62.7027 152.523 57.1221C152.523 51.2774 153.597 46.2252 155.743 41.9655C157.889 37.6727 160.878 34.3706 164.708 32.0592C168.572 29.7147 173.096 28.5424 178.28 28.5424C183.662 28.5424 188.236 29.7807 192 32.2573C195.798 34.7339 198.637 38.2671 200.52 42.857C202.435 47.447 203.26 52.912 202.996 59.252H194.08V56.082C193.981 49.5108 192.644 44.6072 190.068 41.3711C187.493 38.102 183.662 36.4675 178.577 36.4675C173.129 36.4675 168.984 38.2176 166.145 41.7178C163.305 45.2181 161.885 50.2373 161.885 56.7754C161.885 63.0824 163.305 67.9696 166.145 71.4368C168.984 74.904 173.03 76.6376 178.28 76.6376C181.813 76.6376 184.884 75.8286 187.493 74.2105C190.101 72.5925 192.149 70.2645 193.635 67.2266L202.105 70.1489C200.024 74.8709 196.887 78.5363 192.694 81.1449C188.533 83.7206 183.86 85.0084 178.676 85.0084ZM158.913 59.252V52.169H198.439V59.252H158.913ZM209.071 83.5225V10.7111H217.887V83.5225H209.071ZM242.011 85.0084C238.016 85.0084 234.664 84.2819 231.957 82.829C229.282 81.3431 227.251 79.3948 225.864 76.9843C224.51 74.5738 223.833 71.9321 223.833 69.0592C223.833 66.2525 224.362 63.8254 225.418 61.7781C226.508 59.6978 228.027 57.9807 229.975 56.6268C231.924 55.2399 234.252 54.1502 236.959 53.3577C239.502 52.6643 242.342 52.0699 245.479 51.5746C248.649 51.0463 251.852 50.5675 255.088 50.1382C258.324 49.7089 261.345 49.2962 264.152 48.8999L260.982 50.7326C261.081 45.9775 260.124 42.4608 258.109 40.1823C256.128 37.9039 252.694 36.7647 247.807 36.7647C244.571 36.7647 241.731 37.5076 239.287 38.9936C236.877 40.4465 235.176 42.824 234.186 46.1261L225.815 43.6C227.102 38.911 229.596 35.2292 233.294 32.5545C236.992 29.8798 241.863 28.5424 247.906 28.5424C252.76 28.5424 256.92 29.4175 260.388 31.1676C263.888 32.8847 266.398 35.4934 267.917 38.9936C268.676 40.6446 269.155 42.4443 269.353 44.3925C269.551 46.3077 269.65 48.322 269.65 50.4354V83.5225H261.824V70.6938L263.657 71.8825C261.643 76.2083 258.819 79.4774 255.187 81.6898C251.588 83.9022 247.196 85.0084 242.011 85.0084ZM243.349 77.6282C246.519 77.6282 249.26 77.0668 251.571 75.9441C253.916 74.7884 255.798 73.2859 257.218 71.4368C258.638 69.5546 259.562 67.5073 259.991 65.2948C260.487 63.6438 260.751 61.8111 260.784 59.7968C260.85 57.7495 260.883 56.181 260.883 55.0913L263.954 56.4287C261.081 56.8249 258.258 57.2047 255.484 57.5679C252.71 57.9312 250.085 58.3274 247.609 58.7567C245.132 59.1529 242.903 59.6317 240.922 60.1931C239.469 60.6554 238.099 61.2498 236.811 61.9762C235.556 62.7027 234.532 63.6438 233.74 64.7995C232.98 65.9222 232.6 67.3256 232.6 69.0097C232.6 70.4626 232.964 71.8495 233.69 73.1704C234.45 74.4912 235.605 75.5644 237.157 76.3899C238.742 77.2154 240.806 77.6282 243.349 77.6282ZM286.042 83.5225L269.697 29.9788L278.464 30.0284L290.401 69.1583L302.437 30.0284H310.213L322.2 69.1583L334.187 30.0284H342.904L326.559 83.5225H319.228L306.3 42.857L293.373 83.5225H286.042ZM358.113 85.0084C354.117 85.0084 350.766 84.2819 348.058 82.829C345.383 81.3431 343.352 79.3948 341.965 76.9843C340.612 74.5738 339.935 71.9321 339.935 69.0592C339.935 66.2525 340.463 63.8254 341.52 61.7781C342.609 59.6978 344.128 57.9807 346.077 56.6268C348.025 55.2399 350.353 54.1502 353.06 53.3577C355.603 52.6643 358.443 52.0699 361.58 51.5746C364.75 51.0463 367.953 50.5675 371.189 50.1382C374.425 49.7089 377.447 49.2962 380.253 48.8999L377.083 50.7326C377.182 45.9775 376.225 42.4608 374.21 40.1823C372.229 37.9039 368.795 36.7647 363.908 36.7647C360.672 36.7647 357.832 37.5076 355.388 38.9936C352.978 40.4465 351.277 42.824 350.287 46.1261L341.916 43.6C343.204 38.911 345.697 35.2292 349.395 32.5545C353.094 29.8798 357.964 28.5424 364.007 28.5424C368.861 28.5424 373.022 29.4175 376.489 31.1676C379.989 32.8847 382.499 35.4934 384.018 38.9936C384.777 40.6446 385.256 42.4443 385.454 44.3925C385.652 46.3077 385.751 48.322 385.751 50.4354V83.5225H377.925V70.6938L379.758 71.8825C377.744 76.2083 374.92 79.4774 371.288 81.6898C367.689 83.9022 363.297 85.0084 358.113 85.0084ZM359.45 77.6282C362.62 77.6282 365.361 77.0668 367.672 75.9441C370.017 74.7884 371.899 73.2859 373.319 71.4368C374.739 69.5546 375.663 67.5073 376.093 65.2948C376.588 63.6438 376.852 61.8111 376.885 59.7968C376.951 57.7495 376.984 56.181 376.984 55.0913L380.055 56.4287C377.182 56.8249 374.359 57.2047 371.585 57.5679C368.812 57.9312 366.186 58.3274 363.71 58.7567C361.233 59.1529 359.004 59.6317 357.023 60.1931C355.57 60.6554 354.2 61.2498 352.912 61.9762C351.657 62.7027 350.633 63.6438 349.841 64.7995C349.081 65.9222 348.702 67.3256 348.702 69.0097C348.702 70.4626 349.065 71.8495 349.791 73.1704C350.551 74.4912 351.707 75.5644 353.259 76.3899C354.844 77.2154 356.907 77.6282 359.45 77.6282ZM392.686 83.5225V30.0284H400.561V42.9561L399.273 41.272C399.901 39.621 400.71 38.102 401.7 36.7151C402.724 35.3283 403.863 34.189 405.118 33.2975C406.505 32.1747 408.074 31.3162 409.824 30.7218C411.574 30.1274 413.357 29.7807 415.173 29.6817C416.989 29.5496 418.69 29.6651 420.275 30.0284V38.3001C418.426 37.8048 416.395 37.6727 414.182 37.9039C411.97 38.135 409.923 38.9441 408.041 40.3309C406.323 41.5527 404.986 43.0387 404.028 44.7888C403.104 46.5389 402.46 48.4376 402.097 50.4849C401.733 52.4992 401.552 54.563 401.552 56.6764V83.5225H392.686ZM445.91 85.0084C440.66 85.0084 436.07 83.8527 432.141 81.5412C428.244 79.1967 425.206 75.9441 423.027 71.7835C420.848 67.5898 419.758 62.7027 419.758 57.1221C419.758 51.2774 420.831 46.2252 422.977 41.9655C425.124 37.6727 428.112 34.3706 431.943 32.0592C435.806 29.7147 440.33 28.5424 445.514 28.5424C450.897 28.5424 455.47 29.7807 459.234 32.2573C463.032 34.7339 465.872 38.2671 467.754 42.857C469.669 47.447 470.495 52.912 470.23 59.252H461.315V56.082C461.216 49.5108 459.878 44.6072 457.303 41.3711C454.727 38.102 450.897 36.4675 445.811 36.4675C440.363 36.4675 436.219 38.2176 433.379 41.7178C430.539 45.2181 429.119 50.2373 429.119 56.7754C429.119 63.0824 430.539 67.9696 433.379 71.4368C436.219 74.904 440.264 76.6376 445.514 76.6376C449.047 76.6376 452.118 75.8286 454.727 74.2105C457.336 72.5925 459.383 70.2645 460.869 67.2266L469.339 70.1489C467.259 74.8709 464.122 78.5363 459.928 81.1449C455.767 83.7206 451.095 85.0084 445.91 85.0084ZM426.147 59.252V52.169H465.674V59.252H426.147Z" fill="#005A44"/>
<path d="M451.976 18.1807L455.672 6.08454H459.082L462.778 18.1807H460.426L457.133 7.51255H457.57L454.328 18.1807H451.976ZM454.193 15.6606V13.527H460.577V15.6606H454.193ZM463.948 18.1807V17.8951L469.693 8.21816H464.452V6.08454H473.692V6.37014L467.98 16.0302H473.524V18.1807H463.948Z" fill="#005A44"/>
<path fill-rule="evenodd" clip-rule="evenodd" d="M44.4732 0.90332H-0.286133V90.422H44.4732C69.1931 90.422 89.2326 70.3826 89.2326 45.6627C89.2326 20.9428 69.1931 0.90332 44.4732 0.90332ZM48.6705 77.6682C47.6419 77.3654 46.587 76.1408 46.3628 74.9689C46.2177 74.2052 46.3892 73.6785 47.4837 71.5586C51.9144 62.9999 53.8397 55.1258 53.8397 45.5795C53.8397 36.3493 52.1386 29.1599 47.9056 20.5485C46.9958 18.7051 46.2573 16.9802 46.2573 16.73C46.2573 15.8083 47.0221 14.4784 47.8529 13.9649C48.987 13.2539 50.899 13.3855 51.8221 14.2414C52.1782 14.5706 53.0881 16.0717 53.8529 17.5727C56.8858 23.5112 58.9562 30.029 59.9847 36.8101C60.6177 41.0105 60.7496 48.9635 60.2353 52.8084C59.299 59.8924 57.4265 66.2258 54.4199 72.4145C52.6001 76.154 51.4661 77.6945 50.5166 77.6945C50.332 77.6945 50.0155 77.7472 49.8309 77.7999C49.6463 77.8525 49.1188 77.7999 48.6705 77.6682ZM36.3409 71.2294C34.7585 70.7685 33.6112 68.8198 34.0727 67.3714C34.1782 67.0159 34.9299 65.3963 35.7343 63.7636C39.1233 56.8507 40.5343 49.4507 39.8485 42.1824C39.2815 36.2044 38.2134 32.4386 35.5101 26.9347C33.7035 23.2347 33.6112 22.6685 34.6661 21.1674C35.6683 19.7453 38.1738 19.5215 39.4793 20.7197C40.3892 21.5493 43.2243 27.4614 44.3189 30.8059C47.932 41.8664 47.3782 53.7564 42.7496 64.6194C40.3628 70.1892 38.6881 71.9141 36.3409 71.2294ZM21.5717 62.1835C21.809 63.2237 22.653 64.2639 23.6288 64.6984C24.064 64.8959 24.8024 65.0013 25.264 64.9618C26.7805 64.7643 27.5321 63.9479 29.0486 60.8799C31.6859 55.5208 32.6354 51.5312 32.6486 45.7244C32.6618 40.0756 31.6464 35.6646 29.1673 30.582C27.5585 27.277 26.6222 26.3685 24.8156 26.3685C23.7475 26.3685 23.4178 26.487 22.653 27.2112C21.1102 28.6728 21.1497 29.4101 22.9827 33.1101C27.1497 41.5504 27.1101 49.8589 22.8376 58.4967C21.6772 60.8404 21.4266 61.5515 21.5717 62.1835ZM11.7607 58.6152C10.9827 58.2991 10.0992 57.2458 9.83547 56.324C9.54536 55.297 9.78272 54.4806 10.9432 52.5714C12.4464 50.1091 12.7893 48.7924 12.7893 45.5795C12.7893 42.3667 12.4464 41.0368 10.9432 38.5877C10.4289 37.7582 9.92778 36.7575 9.8091 36.3624C9.32119 34.7429 10.6794 32.7546 12.4992 32.4123C14.042 32.1226 15.097 32.8073 16.5212 35.0194C20.6222 41.4187 20.6222 49.9511 16.5212 56.2977C15.0706 58.523 13.4618 59.313 11.7607 58.6152Z" fill="#005A44"/>
</g>
<defs>
<clipPath id="clip0_1126_1714">
<rect width="475.568" height="90" fill="white"/>
</clipPath>
</defs>
</svg>
