<svg width="376" height="90" viewBox="0 0 376 90" fill="none" xmlns="http://www.w3.org/2000/svg">
<path d="M105.45 78.7505V13.9506H131.145C135.525 13.9506 139.11 14.8356 141.9 16.6056C144.72 18.3456 146.805 20.5806 148.155 23.3106C149.535 26.0406 150.225 28.8606 150.225 31.7706C150.225 35.3405 149.37 38.3705 147.66 40.8605C145.98 43.3505 143.685 45.0305 140.775 45.9005V43.6505C144.855 44.5805 147.945 46.5155 150.045 49.4555C152.175 52.3955 153.24 55.7405 153.24 59.4905C153.24 63.3305 152.505 66.6905 151.035 69.5705C149.565 72.4505 147.375 74.7005 144.465 76.3205C141.585 77.9405 138.015 78.7505 133.755 78.7505H105.45ZM116.43 68.5355H132.405C134.295 68.5355 135.99 68.1605 137.49 67.4105C138.99 66.6305 140.16 65.5505 141 64.1705C141.87 62.7605 142.305 61.0955 142.305 59.1755C142.305 57.4355 141.93 55.8755 141.18 54.4955C140.43 53.1155 139.335 52.0205 137.895 51.2105C136.455 50.3705 134.73 49.9505 132.72 49.9505H116.43V68.5355ZM116.43 39.8255H131.01C132.57 39.8255 133.965 39.5255 135.195 38.9255C136.425 38.3255 137.4 37.4405 138.12 36.2705C138.84 35.1006 139.2 33.6606 139.2 31.9506C139.2 29.7006 138.48 27.8256 137.04 26.3256C135.6 24.8256 133.59 24.0756 131.01 24.0756H116.43V39.8255Z" fill="#623CE7"/>
<path d="M162.227 78.7505V30.1506H171.812V41.9855L170.642 40.4555C171.242 38.8355 172.037 37.3655 173.027 36.0455C174.047 34.6955 175.262 33.5856 176.672 32.7156C177.872 31.9056 179.192 31.2756 180.632 30.8256C182.102 30.3456 183.602 30.0606 185.132 29.9706C186.662 29.8506 188.147 29.9106 189.587 30.1506V40.2755C188.147 39.8555 186.482 39.7205 184.592 39.8705C182.732 40.0205 181.052 40.5455 179.552 41.4455C178.052 42.2555 176.822 43.2905 175.862 44.5505C174.932 45.8105 174.242 47.2505 173.792 48.8705C173.342 50.4605 173.117 52.1855 173.117 54.0455V78.7505H162.227Z" fill="#623CE7"/>
<path d="M199.075 22.7706V12.8256H209.92V22.7706H199.075ZM199.075 78.7505V30.1506H209.92V78.7505H199.075Z" fill="#623CE7"/>
<path d="M242.164 80.1005C236.164 80.1005 231.289 78.7505 227.539 76.0505C223.789 73.3505 221.509 69.5555 220.699 64.6655L231.769 62.9555C232.339 65.3555 233.599 67.2455 235.549 68.6255C237.499 70.0055 239.959 70.6955 242.929 70.6955C245.539 70.6955 247.549 70.1855 248.959 69.1655C250.399 68.1155 251.119 66.6905 251.119 64.8905C251.119 63.7805 250.849 62.8955 250.309 62.2355C249.799 61.5455 248.659 60.8855 246.889 60.2555C245.119 59.6255 242.404 58.8305 238.744 57.8705C234.664 56.7905 231.424 55.6355 229.024 54.4055C226.624 53.1455 224.899 51.6605 223.849 49.9505C222.799 48.2405 222.274 46.1705 222.274 43.7405C222.274 40.7105 223.069 38.0705 224.659 35.8206C226.249 33.5706 228.469 31.8456 231.319 30.6456C234.169 29.4156 237.529 28.8006 241.399 28.8006C245.179 28.8006 248.524 29.3856 251.434 30.5556C254.374 31.7256 256.744 33.3906 258.544 35.5505C260.344 37.7105 261.454 40.2455 261.874 43.1555L250.804 45.1355C250.534 43.0655 249.589 41.4305 247.969 40.2305C246.379 39.0305 244.249 38.3555 241.579 38.2055C239.029 38.0555 236.974 38.4455 235.414 39.3755C233.854 40.2755 233.074 41.5505 233.074 43.2005C233.074 44.1305 233.389 44.9255 234.019 45.5855C234.649 46.2455 235.909 46.9055 237.799 47.5655C239.719 48.2255 242.569 49.0355 246.349 49.9955C250.219 50.9855 253.309 52.1255 255.619 53.4155C257.959 54.6755 259.639 56.1905 260.659 57.9605C261.709 59.7305 262.234 61.8755 262.234 64.3955C262.234 69.2855 260.449 73.1255 256.879 75.9155C253.339 78.7055 248.434 80.1005 242.164 80.1005Z" fill="#623CE7"/>
<path d="M300.576 78.7505C297.366 79.3505 294.216 79.6055 291.126 79.5155C288.066 79.4555 285.321 78.9005 282.891 77.8505C280.461 76.7705 278.616 75.0755 277.356 72.7655C276.246 70.6655 275.661 68.5205 275.601 66.3305C275.541 64.1405 275.511 61.6655 275.511 58.9055V16.6506H286.311V58.2755C286.311 60.2255 286.326 61.9355 286.356 63.4055C286.416 64.8755 286.731 66.0755 287.301 67.0055C288.381 68.8055 290.106 69.8105 292.476 70.0205C294.846 70.2305 297.546 70.1105 300.576 69.6605V78.7505ZM266.691 38.6555V30.1506H300.576V38.6555H266.691Z" fill="#623CE7"/>
<path d="M330.03 80.1005C325.17 80.1005 320.925 79.0055 317.295 76.8155C313.665 74.6255 310.845 71.6105 308.835 67.7705C306.855 63.9005 305.865 59.4605 305.865 54.4505C305.865 49.3505 306.885 44.8805 308.925 41.0405C310.965 37.2005 313.8 34.2006 317.43 32.0406C321.06 29.8806 325.26 28.8006 330.03 28.8006C334.92 28.8006 339.18 29.8956 342.81 32.0856C346.44 34.2756 349.26 37.3055 351.27 41.1755C353.28 45.0155 354.285 49.4405 354.285 54.4505C354.285 59.4905 353.265 63.9455 351.225 67.8155C349.215 71.6555 346.395 74.6705 342.765 76.8605C339.135 79.0205 334.89 80.1005 330.03 80.1005ZM330.03 69.9305C334.35 69.9305 337.56 68.4905 339.66 65.6105C341.76 62.7305 342.81 59.0105 342.81 54.4505C342.81 49.7405 341.745 45.9905 339.615 43.2005C337.485 40.3805 334.29 38.9705 330.03 38.9705C327.12 38.9705 324.72 39.6305 322.83 40.9505C320.97 42.2405 319.59 44.0555 318.69 46.3955C317.79 48.7055 317.34 51.3905 317.34 54.4505C317.34 59.1605 318.405 62.9255 320.535 65.7455C322.695 68.5355 325.86 69.9305 330.03 69.9305Z" fill="#623CE7"/>
<path d="M365.1 78.7505V12.6006H375.945V78.7505H365.1Z" fill="#623CE7"/>
<path fill-rule="evenodd" clip-rule="evenodd" d="M66.4283 0H0V42.8571H66.4283C66.4283 42.8571 66.4284 42.8571 66.4285 42.8571C78.263 42.857 87.8568 33.2631 87.8568 21.4285C87.8568 9.59395 78.263 0.00011545 66.4285 0C66.4284 0 66.4283 0 66.4283 0Z" fill="#623CE7"/>
<path fill-rule="evenodd" clip-rule="evenodd" d="M66.4285 47.1426H0V89.9997H66.3649C66.386 89.9997 66.4071 89.9997 66.4282 89.9997C78.2629 89.9997 87.8567 80.4059 87.8567 68.5712C87.8567 56.7366 78.263 47.1428 66.4285 47.1427V47.1426Z" fill="#623CE7"/>
</svg>
