<svg width="349" height="67" viewBox="0 0 349 67" fill="none" xmlns="http://www.w3.org/2000/svg">
<path d="M24.185 66.9125C19.0142 66.9125 14.5733 66.0304 10.8625 64.2663C7.2125 62.5021 3.89708 59.8558 0.91625 56.3275L9.12875 48.115C11.0146 50.6092 13.2046 52.5558 15.6987 53.955C18.1929 55.2933 21.2346 55.9625 24.8237 55.9625C28.0479 55.9625 30.6029 55.3238 32.4887 54.0462C34.4354 52.7688 35.4087 51.0046 35.4087 48.7538C35.4087 46.8071 34.8612 45.2254 33.7662 44.0088C32.6712 42.7921 31.2112 41.7579 29.3862 40.9063C27.6221 40.0546 25.645 39.2942 23.455 38.625C21.3258 37.895 19.1662 37.0738 16.9762 36.1613C14.8471 35.2488 12.87 34.1233 11.045 32.785C9.28083 31.3858 7.85125 29.6217 6.75625 27.4925C5.66125 25.3025 5.11375 22.565 5.11375 19.28C5.11375 15.3867 6.05667 12.0713 7.9425 9.33375C9.82833 6.59625 12.4137 4.4975 15.6987 3.0375C18.9837 1.5775 22.6946 0.847501 26.8312 0.847501C31.2112 0.847501 35.1654 1.66875 38.6937 3.31125C42.2221 4.95375 45.1117 7.08292 47.3625 9.69875L39.15 17.9113C37.2642 15.8429 35.3175 14.3221 33.31 13.3488C31.3633 12.3754 29.1429 11.8887 26.6487 11.8887C23.7896 11.8887 21.5387 12.4362 19.8962 13.5313C18.2537 14.6263 17.4325 16.2079 17.4325 18.2763C17.4325 20.0404 17.98 21.47 19.075 22.565C20.17 23.66 21.5996 24.6029 23.3637 25.3938C25.1887 26.1846 27.1658 26.945 29.295 27.675C31.485 28.405 33.6446 29.2263 35.7737 30.1388C37.9637 31.0513 39.9408 32.2375 41.705 33.6975C43.53 35.1575 44.99 37.0433 46.085 39.355C47.18 41.6058 47.7275 44.4042 47.7275 47.75C47.7275 53.7117 45.6287 58.3958 41.4312 61.8025C37.2337 65.2092 31.485 66.9125 24.185 66.9125ZM56.2444 66V21.9263H68.2894V66H56.2444ZM62.2669 14.8087C60.3202 14.8087 58.7082 14.17 57.4307 12.8925C56.1532 11.5542 55.5144 9.91167 55.5144 7.965C55.5144 6.07917 56.1532 4.46708 57.4307 3.12875C58.7082 1.79042 60.3202 1.12125 62.2669 1.12125C64.2744 1.12125 65.8865 1.79042 67.1031 3.12875C68.3806 4.46708 69.0194 6.07917 69.0194 7.965C69.0194 9.91167 68.3806 11.5542 67.1031 12.8925C65.8865 14.17 64.2744 14.8087 62.2669 14.8087ZM78.8787 66V0.026251H90.8324V66H78.8787ZM101.424 66V21.9263H113.469V66H101.424ZM107.446 14.8087C105.5 14.8087 103.888 14.17 102.61 12.8925C101.333 11.5542 100.694 9.91167 100.694 7.965C100.694 6.07917 101.333 4.46708 102.61 3.12875C103.888 1.79042 105.5 1.12125 107.446 1.12125C109.454 1.12125 111.066 1.79042 112.283 3.12875C113.56 4.46708 114.199 6.07917 114.199 7.965C114.199 9.91167 113.56 11.5542 112.283 12.8925C111.066 14.17 109.454 14.8087 107.446 14.8087ZM144.863 66.9125C140.361 66.9125 136.316 65.9087 132.727 63.9013C129.138 61.8938 126.309 59.1563 124.241 55.6888C122.172 52.2213 121.138 48.3279 121.138 44.0088C121.138 39.6288 122.172 35.705 124.241 32.2375C126.309 28.77 129.138 26.0325 132.727 24.025C136.377 21.9567 140.422 20.9225 144.863 20.9225C148.331 20.9225 151.524 21.5613 154.444 22.8388C157.364 24.1163 159.889 25.9413 162.018 28.3138L154.353 36.07C153.197 34.7925 151.798 33.8192 150.156 33.15C148.574 32.4808 146.81 32.1463 144.863 32.1463C142.673 32.1463 140.696 32.6633 138.932 33.6975C137.229 34.6708 135.86 36.0396 134.826 37.8038C133.852 39.5071 133.366 41.545 133.366 43.9175C133.366 46.2292 133.852 48.2975 134.826 50.1225C135.86 51.8867 137.229 53.2858 138.932 54.32C140.696 55.2933 142.673 55.78 144.863 55.78C146.871 55.78 148.665 55.4454 150.247 54.7763C151.889 54.0463 153.289 53.0121 154.444 51.6738L162.201 59.43C159.95 61.8633 157.364 63.7188 154.444 64.9963C151.524 66.2737 148.331 66.9125 144.863 66.9125ZM188.704 66.9125C184.263 66.9125 180.248 65.9087 176.659 63.9013C173.13 61.8329 170.302 59.065 168.172 55.5975C166.104 52.0692 165.07 48.1454 165.07 43.8263C165.07 39.5071 166.104 35.6442 168.172 32.2375C170.241 28.77 173.07 26.0325 176.659 24.025C180.248 21.9567 184.232 20.9225 188.612 20.9225C193.114 20.9225 197.129 21.9567 200.657 24.025C204.247 26.0325 207.075 28.77 209.144 32.2375C211.212 35.6442 212.246 39.5071 212.246 43.8263C212.246 48.1454 211.212 52.0692 209.144 55.5975C207.075 59.065 204.247 61.8329 200.657 63.9013C197.129 65.9087 193.145 66.9125 188.704 66.9125ZM188.612 55.78C190.863 55.78 192.84 55.2933 194.544 54.32C196.308 53.2858 197.646 51.8867 198.559 50.1225C199.532 48.2975 200.019 46.2292 200.019 43.9175C200.019 41.6058 199.532 39.5679 198.559 37.8038C197.585 36.0396 196.247 34.6708 194.544 33.6975C192.84 32.6633 190.863 32.1463 188.612 32.1463C186.422 32.1463 184.476 32.6633 182.772 33.6975C181.069 34.6708 179.731 36.0396 178.757 37.8038C177.784 39.5679 177.297 41.6058 177.297 43.9175C177.297 46.2292 177.784 48.2975 178.757 50.1225C179.731 51.8867 181.069 53.2858 182.772 54.32C184.476 55.2933 186.422 55.78 188.612 55.78ZM249.598 66V40.7238C249.598 38.1079 248.777 35.9788 247.134 34.3363C245.492 32.6938 243.363 31.8725 240.747 31.8725C239.044 31.8725 237.523 32.2375 236.184 32.9675C234.846 33.6975 233.781 34.7317 232.991 36.07C232.261 37.4083 231.896 38.9596 231.896 40.7238L227.242 38.3513C227.242 34.8838 227.972 31.8725 229.432 29.3175C230.953 26.7017 233.021 24.6638 235.637 23.2038C238.314 21.7438 241.325 21.0138 244.671 21.0138C247.895 21.0138 250.784 21.835 253.339 23.4775C255.894 25.0592 257.902 27.1579 259.362 29.7738C260.822 32.3288 261.552 35.0967 261.552 38.0775V66H249.598ZM219.942 66V21.9263H231.896V66H219.942Z" fill="black"/>
<path d="M279.393 66.9125C277.203 66.9125 275.409 66.1825 274.01 64.7225C272.61 63.2625 271.911 61.4679 271.911 59.3387C271.911 57.2096 272.61 55.415 274.01 53.955C275.409 52.495 277.203 51.765 279.393 51.765C281.523 51.765 283.287 52.495 284.686 53.955C286.085 55.415 286.785 57.2096 286.785 59.3387C286.785 61.4679 286.085 63.2625 284.686 64.7225C283.287 66.1825 281.523 66.9125 279.393 66.9125ZM313.218 66L287.942 1.85125H301.355L320.883 53.7725H315.682L335.392 1.85125H348.623L323.073 66H313.218Z" fill="#62CF63"/>
</svg>
