<svg width="170" height="51" viewBox="0 0 170 51" fill="none" xmlns="http://www.w3.org/2000/svg">
<g clip-path="url(#clip0_0_522)">
<path d="M37.433 30.1807H31.0635V36.3692H37.433V30.1807Z" fill="white"/>
<path d="M44.4893 38.8748H40.0118V43.225H44.4893V38.8748Z" fill="white"/>
<path d="M51.5456 47.5626H48.9537V50.0809H51.5456V47.5626Z" fill="white"/>
<path d="M45.4353 22.4058H39.0658V28.5942H45.4353V22.4058Z" fill="white"/>
<path d="M52.4851 31.0999H48.0077V35.4501H52.4851V31.0999Z" fill="white"/>
<path d="M21.4282 30.1807H15.0587V36.3692H21.4282V30.1807Z" fill="white"/>
<path d="M12.4798 38.8748H8.00232V43.225H12.4798V38.8748Z" fill="white"/>
<path d="M3.5379 47.5626H0.946045V50.0809H3.5379V47.5626Z" fill="white"/>
<path d="M21.4282 14.6308H15.0587V20.8193H21.4282V14.6308Z" fill="white"/>
<path d="M12.4798 7.77496H8.00232V12.1252H12.4798V7.77496Z" fill="white"/>
<path d="M3.5379 0.919147H0.946045V3.43736H3.5379V0.919147Z" fill="white"/>
<path d="M30.3701 21.4866H22.115V29.5071H30.3701V21.4866Z" fill="white"/>
<path d="M29.4305 6.85582H23.061V13.0443H29.4305V6.85582Z" fill="white"/>
<path d="M20.4822 0H16.0048V4.3502H20.4822V0Z" fill="white"/>
<path d="M13.4259 22.4058H7.0564V28.5942H13.4259V22.4058Z" fill="white"/>
<path d="M4.47744 15.5499H0V19.9001H4.47744V15.5499Z" fill="white"/>
<path d="M4.47744 31.0999H0V35.4501H4.47744V31.0999Z" fill="white"/>
<path d="M29.4305 37.9557H23.061V44.1442H29.4305V37.9557Z" fill="white"/>
<path d="M20.4822 46.6435H16.0048V50.9937H20.4822V46.6435Z" fill="white"/>
<path d="M36.4868 46.6435H32.0094V50.9937H36.4868V46.6435Z" fill="white"/>
<path d="M37.433 14.6308H31.0635V20.8193H37.433V14.6308Z" fill="white"/>
<path d="M44.4893 7.77496H40.0118V12.1252H44.4893V7.77496Z" fill="white"/>
<path d="M51.5456 0.919147H48.9537V3.43736H51.5456V0.919147Z" fill="white"/>
<path d="M36.4868 0H32.0094V4.3502H36.4868V0Z" fill="white"/>
<path d="M52.4851 15.5499H48.0077V19.9001H52.4851V15.5499Z" fill="white"/>
<path d="M77.0106 15.8521H71.7427L70.6087 18.2948H68.7944L74.3734 6.63548L79.9524 18.2948H78.1381L77.0041 15.8521H77.0106ZM76.2396 14.2279L74.3734 10.2302L72.5073 14.2279H76.2396Z" fill="white"/>
<path d="M87.7733 16.6642V18.2885H81.3519V6.90619H83.0237V16.6705H87.7668L87.7733 16.6642Z" fill="white"/>
<path d="M96.145 16.6642V18.2885H89.7236V6.90619H91.3954V16.6705H96.1385L96.145 16.6642Z" fill="white"/>
<path d="M110.938 6.90619V8.53043H107.867V18.2948H106.195V8.53043H103.124V6.90619H110.938Z" fill="white"/>
<path d="M121.824 6.90619V18.2948H120.152V13.4158H114.573V18.2948H112.901V6.90619H114.573V11.7852H120.152V6.90619H121.824Z" fill="white"/>
<path d="M124.338 18.2948V6.90619H126.01V18.2948H124.338Z" fill="white"/>
<path d="M130.202 10.4946V18.2885H128.53V6.63548L136.623 14.7V6.90618H138.295V18.5655L130.202 10.5009V10.4946Z" fill="white"/>
<path d="M151.831 12.5973C151.831 15.8206 149.427 18.427 146.11 18.427C142.792 18.427 140.109 15.8143 140.109 12.5973C140.109 9.38033 142.798 6.76768 146.11 6.76768C148.481 6.76768 150.295 8.05827 151.293 9.95322L149.602 10.4254C148.941 9.20405 147.684 8.39193 146.116 8.39193C143.725 8.39193 141.788 10.2743 141.788 12.5973C141.788 14.9204 143.725 16.8027 146.116 16.8027C148.241 16.8027 149.673 15.4618 150.056 13.6865H145.695V12.0622L151.799 12.0811C151.818 12.2322 151.831 12.4211 151.831 12.6036V12.5973Z" fill="white"/>
<path d="M161.881 14.9582C161.881 16.9412 160.19 18.4333 157.449 18.4333C154.708 18.4333 153.121 16.7901 152.946 16.5887L153.781 15.1281C154.76 16.1795 156.101 16.809 157.481 16.809C159.244 16.809 160.203 16.1165 160.203 15.0274C160.203 14.1146 159.14 13.5543 157.533 13.2835C154.274 12.7421 153.347 11.6026 153.347 10.0791C153.347 8.23454 154.831 6.77398 157.572 6.77398C158.058 6.77398 159.911 6.82434 161.356 8.12752L160.553 9.60067C159.944 9.02148 158.998 8.39822 157.533 8.39822C155.926 8.39822 155.019 8.99 155.019 10.0099C155.019 10.8912 155.823 11.3005 157.669 11.653C160.462 12.1818 161.875 13.0443 161.875 14.9582H161.881Z" fill="white"/>
<path d="M85.6998 31.402C85.6998 36.7092 81.9416 40.9838 75.3389 40.9838H68.7944V21.8203H75.3389C82.1231 21.8203 85.6998 26.1012 85.6998 31.402ZM81.9481 31.402C81.9481 28.1221 79.5377 25.4717 76.0192 25.4717H72.5526V37.3387H76.0192C79.5442 37.3387 81.9481 34.6883 81.9481 31.4083V31.402Z" fill="white"/>
<path d="M88.2852 40.9838V21.8203H92.0434V40.9838H88.2852Z" fill="white"/>
<path d="M114.819 31.402C114.819 36.9358 110.653 41.4434 104.957 41.4434C99.2617 41.4434 94.6223 36.9358 94.6223 31.402C94.6223 25.8683 99.2617 21.3607 104.957 21.3607C109.04 21.3607 112.176 23.583 113.88 26.8378L110.096 27.864C109.065 26.1516 107.251 25.0121 104.957 25.0121C101.316 25.0121 98.3805 27.864 98.3805 31.402C98.3805 34.9401 101.316 37.792 104.957 37.792C107.834 37.792 110.005 35.9663 110.77 33.4544H103.551V29.803H114.677C114.768 30.3444 114.826 30.8292 114.826 31.402H114.819Z" fill="white"/>
<path d="M117.398 40.9838V21.8203H121.156V40.9838H117.398Z" fill="white"/>
<path d="M138.068 21.8203V25.4717H132.904V40.9838H129.146V25.4717H123.982V21.8203H138.075H138.068Z" fill="white"/>
<path d="M150.684 37.3387H142.345L140.874 40.9901H136.649L144.807 21.8266H148.215L156.373 40.9901H152.149L150.678 37.3387H150.684ZM149.246 33.6873L146.518 26.8441L143.79 33.6873H149.252H149.246Z" fill="white"/>
<path d="M170 37.3387V40.9901H158.259V21.8266H162.017V37.3387H170Z" fill="white"/>
</g>
<defs>
<clipPath id="clip0_0_522">
<rect width="170" height="51" fill="white"/>
</clipPath>
</defs>
</svg>
