<svg xmlns="http://www.w3.org/2000/svg" width="2309" height="263" viewBox="0 0 2309 263" fill="none"><path d="M2017.49 197.798H2124.89L2308.16 262L2179.98 262M2017.49 197.798L1900.33 151.522H1715.54M2017.49 197.798L2179.98 262M2017.49 197.798H1802.7M1802.7 197.798L1715.54 151.522M1802.7 197.798L1923.63 261.999M1802.7 197.798H1587.93M1587.93 197.798H1480.54M1587.93 197.798L1530.73 151.521L1438.34 151.522M1587.93 197.798L1667.27 261.999M1480.54 197.798L1438.34 151.522M1480.54 197.798L1373.17 197.798M1480.54 197.798L1539.12 261.999M1438.34 151.522L1406.46 116.577M1438.34 151.522L1345.93 151.522M1406.46 116.577L1325.37 116.577M1406.46 116.577L1487.54 116.577L1530.73 151.522H1715.54M1406.46 116.577L1319.71 21.4866H1269.42M1269.42 21.4866H1219.13M1269.42 21.4866L1325.37 116.577M1269.42 21.4866L1257.36 1M1219.13 21.4866H1168.84M1219.13 21.4866L1213.72 1M1219.13 21.4866L1244.29 116.577M1168.84 21.4866L1169.48 10.5185L1170.05 1M1168.84 21.4866L1168.07 34.2456L1164.81 89.2465L1158.4 197.797M1168.84 21.4866H1068.25M1068.25 21.4866H1017.96L919.947 116.577M1068.25 21.4866L1082.73 1M1068.25 21.4866L1048.58 49.293L1035.86 67.3092L1001.03 116.577M919.947 116.577L883.914 151.522M919.947 116.577L838.861 116.577L791.52 151.522H606.711M919.947 116.577L1001.03 116.577M883.914 151.522L836.233 197.798M883.914 151.522L791.521 151.521L728.838 197.798M883.914 151.522L976.33 151.522M836.233 197.798H728.838M836.233 197.798L770.06 261.999M836.233 197.798L943.606 197.798M728.838 197.798L641.883 261.999M728.838 197.798H299.278M299.278 197.798H191.905L1 262L129.176 262M299.278 197.798L129.176 262M299.278 197.798L421.924 151.522H606.711M129.176 262L641.883 261.999M606.711 151.522L385.529 262.001M606.711 151.522L811.395 49.2943H870.679L895.947 34.2469H1549.05L1582.29 49.2943H1641.57L1687.17 67.3106H1752.32L1814.96 89.2478M1001.03 116.577H1082.12M1001.03 116.577L976.33 151.522M1082.12 116.577H1244.29M1082.12 116.577L1026.41 261.999M1082.12 116.577L1107.88 49.293L1113.66 34.2456L1118.53 21.4866L1126.4 1M1244.29 116.577H1325.37M1244.29 116.577L1253.53 151.521M1325.37 116.577L1345.93 151.522M1715.54 151.522L1522.98 49.293M2179.98 262L1923.63 261.999M257.353 261.996L659.152 89.2435H803.623L840.448 67.3062H1491.78L1526.02 89.2435H1670.49L2051.8 261.996M191.906 197.796L329.51 151.521H421.926L514.523 116.575H757.778M757.778 116.575H838.863L875.87 89.2452M757.778 116.575L803.623 89.2451L875.87 89.2452M757.778 116.575L513.707 261.998M875.87 89.2452L929.987 49.2917H1404.39L1453.78 89.2452M875.87 89.2452H1453.78M1453.78 89.2452L1487.54 116.575H1568.63M1453.78 89.2452L1526.02 89.2451L1568.63 116.575M1568.63 116.575H1811.88L1900.33 151.521H1992.75L2124.89 197.796M1568.63 116.575L1795.45 261.998M1923.63 261.999H1667.27M1667.27 261.999H1539.12M1539.12 261.999H1410.94M1410.94 261.999L1373.17 197.798M1410.94 261.999L1282.77 261.999M1373.17 197.798L1345.93 151.522M1373.17 197.798L1158.4 197.797M1345.93 151.522L1253.53 151.521M1257.36 1H1213.72M1257.36 1L1301.03 1M1213.72 1H1170.05M1170.05 1H1126.4M1126.4 1H1082.73M1082.73 1L1039.06 1M976.33 151.522L943.606 197.798M976.33 151.522L1253.53 151.521M943.606 197.798L898.236 261.999M943.606 197.798L1158.4 197.797M898.236 261.999H770.06M898.236 261.999L1154.59 261.999M770.06 261.999H641.883M1282.77 261.999H1154.59M1282.77 261.999L1253.53 151.521M1154.59 261.999L1158.4 197.797M329.509 151.525L433.438 116.579H514.522L586.905 89.2493H659.152L710.187 67.312H840.448L870.68 49.2958H929.986L967.673 21.4894H1017.96L1029.27 10.5213H1309.71L1319.71 21.4894H1369.99L1404.39 49.2958H1463.68L1491.78 67.312H1622.04L1670.49 89.2493H1742.74L1811.88 116.579H1892.97L1992.75 151.525M433.438 116.577L514.659 89.2465M514.659 89.2465H586.906L645.057 67.3092M514.659 89.2465L579.926 67.3092M645.057 67.3092H710.187L752.089 49.293M645.057 67.3092H579.926M645.057 67.3092L692.783 49.293M752.089 49.293H811.396L841.514 34.2456M752.089 49.293H692.783M752.089 49.293L787.102 34.2456M841.514 34.2456H895.948L917.387 21.4866M841.514 34.2456H787.102M841.514 34.2456L867.077 21.4866M917.387 21.4866H967.674L982.518 10.5185M917.387 21.4866H867.077M917.387 21.4866L935.788 10.5185H982.518M982.518 10.5185L995.412 1M982.518 10.5185H1029.27L1039.06 1M995.412 1H1039.06M995.412 1H951.742M579.926 67.3092L633.498 49.293M692.783 49.293L633.498 49.293M692.783 49.293L732.667 34.2456M787.102 34.2456L732.667 34.2456M787.102 34.2456L816.789 21.4866M867.077 21.4866L816.789 21.4866M867.077 21.4866L889.036 10.5185M633.498 49.293L678.255 34.2456M732.667 34.2456L678.255 34.2456M732.667 34.2456L766.501 21.4866M816.789 21.4866L766.501 21.4866M816.789 21.4866L842.283 10.5185M889.036 10.5185L908.094 1M889.036 10.5185L842.283 10.5185M889.036 10.5185L935.787 10.5185L951.742 1M908.094 1H951.742M908.094 1H864.424M678.255 34.2456L716.214 21.4866M766.501 21.4866H716.214M766.501 21.4866L795.554 10.5185M842.283 10.5185H795.554M842.283 10.5185L864.424 1M1475.67 1H1519.31M1519.31 1H1562.98L1590.15 10.5185M1519.31 1L1543.4 10.5185H1590.15M1590.15 10.5185L1621.45 21.4866M1301.03 1L1309.71 10.5185H1356.44M1301.03 1H1344.68M1356.44 10.5185L1369.99 21.4866H1420.28M1356.44 10.5185L1344.68 1M1356.44 10.5185L1403.19 10.5185M1420.28 21.4866L1403.19 10.5185M1420.28 21.4866L1470.59 21.4866M1420.28 21.4866L1463.68 49.293H1522.98M1522.98 49.293L1582.29 49.293L1622.04 67.3092H1687.17L1742.74 89.2465H1814.96L1892.97 116.577M1522.98 49.293L1470.59 21.4866M1388.35 1H1432M1388.35 1H1344.68M1388.35 1L1403.19 10.5185M1432 1H1475.67L1496.67 10.5185M1432 1L1449.92 10.5185M1496.67 10.5185L1520.88 21.4866M1496.67 10.5185H1449.92M1496.67 10.5185H1543.4L1571.16 21.4866M1520.88 21.4866H1571.16M1520.88 21.4866L1470.59 21.4866M1520.88 21.4866L1549.05 34.2456L1603.48 34.2456M1571.16 21.4866L1603.48 34.2456M1571.16 21.4866H1621.45L1657.92 34.2456M1603.48 34.2456H1657.92M1603.48 34.2456L1641.58 49.293L1700.88 49.293M1657.92 34.2456L1700.88 49.293M1700.88 49.293L1752.32 67.3092M1403.19 10.5185L1449.92 10.5185M1470.59 21.4866L1449.92 10.5185M716.214 21.4866L748.802 10.5185M795.554 10.5185L820.777 1M795.554 10.5185H748.802M820.777 1H864.424M820.777 1H777.107L748.802 10.5185" stroke="url(#paint0_linear_52_493)" stroke-opacity="0.16" stroke-linecap="round" stroke-linejoin="round"></path><defs><linearGradient id="paint0_linear_52_493" x1="1154.58" y1="1" x2="1154.58" y2="262.001" gradientUnits="userSpaceOnUse"><stop stop-opacity="0"></stop><stop offset="1"></stop></linearGradient></defs></svg>