<svg width="229" height="62" viewBox="0 0 229 62" fill="none" xmlns="http://www.w3.org/2000/svg">
<g clip-path="url(#clip0_27_582)">
<path d="M31.8819 30.9678L31.8234 31.0247L39.5216 38.5159L54.4061 52.9435C48.5868 58.4925 40.662 61.9927 31.8746 61.9927C14.2558 61.9998 0 48.1201 0 30.9678C0 26.2511 1.08198 21.8119 3.02662 17.8706L16.5441 30.9678H31.8892H31.8819Z" fill="#134A98"/>
<path d="M47.227 30.968H31.8819L24.1837 23.5337L9.35767 9.04923C15.1185 3.44326 23.1018 0 31.8819 0C49.4495 0 63.7638 13.8726 63.7638 30.968C63.7638 35.6847 62.6818 40.1808 60.7372 44.1221L47.2197 30.968H47.227Z" fill="#134A98"/>
<path d="M48.9962 14.3208L31.8819 30.968L24.1838 23.5337L33.6511 14.3208H48.9962Z" fill="#5DB2E3"/>
<path d="M39.5289 38.5232L30.1127 47.6792H14.7164L31.8234 31.0249L39.5289 38.5232Z" fill="#5DB2E3"/>
<path d="M86.31 18.6108H90.6599V44.0298H86.31V18.6108Z" fill="#134A98"/>
<path d="M101.209 22.6588H93.2259V18.6108H113.557V22.6588H105.574V44.0298H101.216V22.6588H101.209Z" fill="#134A98"/>
<path d="M139.217 44.0298L136.644 41.5612C134.597 43.4038 131.943 44.3997 128.953 44.3997C123.616 44.3997 120.02 41.7817 120.02 36.9939C120.02 34.1198 121.686 31.5017 124.676 29.8441C123.507 28.2648 122.937 26.8989 122.937 25.1701C122.937 21.1222 126.007 18.248 131 18.248C135.993 18.248 139.1 21.2645 139.364 25.8318H135.007C134.853 23.6548 133.493 21.9261 130.956 21.9261C128.42 21.9261 127.286 23.3631 127.286 25.1275C127.286 26.8918 128.383 28.2648 131.753 31.4662L136.556 36.0335C137.083 35.2225 137.543 34.3403 137.997 33.3799L139.247 30.6907H143.523L141.893 34.1909C141.096 35.8129 140.263 37.3283 139.283 38.6871L144.927 44.0298H139.21H139.217ZM129.297 40.7502C131.154 40.7502 132.667 40.1241 133.954 39.0214L129.034 34.383C128.31 33.6787 127.63 33.0526 127.067 32.4266C125.364 33.5008 124.34 34.8952 124.34 36.7378C124.34 39.3131 126.307 40.7502 129.297 40.7502Z" fill="#134A98"/>
<path d="M158.51 22.6588H150.527V18.6108H170.858V22.6588H162.875V44.0298H158.518V22.6588H158.51Z" fill="#134A98"/>
<path d="M168.409 34.8952C168.409 29.5524 172.613 25.3906 177.95 25.3906C183.286 25.3906 187.336 29.3746 187.336 34.7813C187.336 35.2295 187.336 35.7062 187.263 36.1473H172.576C173.066 39.1352 175.186 40.8213 178.14 40.8213C180.486 40.8213 181.963 39.683 182.796 37.9471H187.117C185.677 41.924 182.314 44.3926 178.147 44.3926C172.62 44.3926 168.416 40.1881 168.416 34.888L168.409 34.8952ZM183.052 33.1664C182.716 30.6978 180.75 28.9264 177.906 28.9264C175.296 28.9264 173.293 30.5128 172.686 33.1664H183.06H183.052Z" fill="#134A98"/>
<path d="M189.391 34.8952C189.391 29.5524 193.667 25.3906 199.202 25.3906C204.049 25.3906 207.909 28.6347 208.706 33.0882H204.385C203.668 30.8045 201.775 29.218 199.202 29.218C196.021 29.218 193.594 31.6867 193.594 34.8952C193.594 38.1036 196.014 40.5723 199.202 40.5723C201.775 40.5723 203.668 38.9502 204.385 36.7022H208.706C207.945 41.1201 204.049 44.3997 199.202 44.3997C193.675 44.3997 189.391 40.2379 189.391 34.8952Z" fill="#134A98"/>
<path d="M211.542 18.6108H215.746V27.6032C216.915 26.1945 218.736 25.3906 221.046 25.3906C225.703 25.3906 228.993 28.592 228.993 33.6431V44.0298H224.789V34.013C224.789 31.0251 223.122 29.2608 220.395 29.2608C217.668 29.2608 215.738 31.1033 215.738 34.013V44.0298H211.535V18.6108H211.542Z" fill="#134A98"/>
</g>
<defs>
<clipPath id="clip0_27_582">
<rect width="229" height="62" fill="white"/>
</clipPath>
</defs>
</svg>
