<svg width="245" height="69" viewBox="0 0 245 69" fill="none" xmlns="http://www.w3.org/2000/svg">
<g clip-path="url(#clip0_46_226)">
<path d="M58.2231 58.9438C51.9972 65.128 43.4874 69 34.0938 69C15.2362 69 0 53.5752 0 34.4842C0 29.2343 1.15758 24.2775 3.23027 19.8987L17.7 34.4842H34.0938L15.7446 53.0605H32.2245L42.2751 42.8855L58.2231 58.9438Z" fill="white"/>
<path d="M68.2189 34.4842C68.2189 39.734 67.0614 44.7146 64.9887 49.1013L50.5189 34.4842H34.0938L52.4117 15.9395H35.9866L25.8813 26.2016L9.98803 10.0879C16.1592 3.84037 24.6924 0 34.0938 0C52.8888 0 68.2189 15.4565 68.2189 34.4842Z" fill="white"/>
<path d="M92.3404 20.7142H96.9942V49.0063H92.3404V20.7142Z" fill="white"/>
<path d="M108.281 25.2277H99.7395V20.7222H121.491V25.2277H112.95V49.0142H108.288V25.2277H108.281Z" fill="white"/>
<path d="M148.937 49.0143L146.183 46.2666C143.993 48.3174 141.154 49.426 137.955 49.426C132.246 49.426 128.397 46.5121 128.397 41.1831C128.397 37.9841 130.181 35.0701 133.38 33.2252C132.128 31.4673 131.518 29.947 131.518 28.0229C131.518 23.5173 134.803 20.3184 140.145 20.3184C145.487 20.3184 148.811 23.6757 149.101 28.7593H144.439C144.275 26.3363 142.82 24.4121 140.106 24.4121C137.392 24.4121 136.18 26.0116 136.18 27.9753C136.18 29.9391 137.353 31.4673 140.959 35.0305L146.097 40.1141C146.661 39.2114 147.153 38.2295 147.638 37.1606L148.976 34.1675H153.551L151.807 38.0633C150.955 39.8686 150.063 41.5552 149.015 43.0676L155.053 49.0143H148.937ZM138.331 45.3639C140.317 45.3639 141.936 44.6671 143.313 43.4398L138.049 38.277C137.275 37.4931 136.547 36.7963 135.945 36.0995C134.123 37.2952 133.028 38.8472 133.028 40.9059C133.028 43.7723 135.132 45.3718 138.331 45.3718V45.3639Z" fill="white"/>
<path d="M169.585 25.2277H161.044V20.7222H182.796V25.2277H174.255V49.0142H169.593V25.2277H169.585Z" fill="white"/>
<path d="M180.168 38.8392C180.168 32.8926 184.665 28.2604 190.375 28.2604C196.084 28.2604 200.418 32.6946 200.418 38.7125C200.418 39.2114 200.418 39.7419 200.339 40.2328H184.626C185.15 43.5585 187.418 45.4352 190.578 45.4352C193.089 45.4352 194.669 44.1682 195.56 42.2362H200.183C198.642 46.6625 195.044 49.4101 190.586 49.4101C184.673 49.4101 180.176 44.7304 180.176 38.8313L180.168 38.8392ZM195.842 36.9151C195.482 34.1674 193.378 32.1958 190.336 32.1958C187.543 32.1958 185.4 33.9615 184.751 36.9151H195.85H195.842Z" fill="white"/>
<path d="M202.623 38.8392C202.623 32.8926 207.199 28.2604 213.12 28.2604C218.305 28.2604 222.435 31.8711 223.288 36.828H218.665C217.899 34.2862 215.873 32.5204 213.12 32.5204C209.717 32.5204 207.121 35.2681 207.121 38.8392C207.121 42.4104 209.71 45.158 213.12 45.158C215.873 45.158 217.899 43.3526 218.665 40.8505H223.288C222.474 45.7677 218.305 49.4181 213.12 49.4181C207.207 49.4181 202.623 44.7859 202.623 38.8392Z" fill="white"/>
<path d="M226.322 20.7142H230.82V30.723C232.071 29.1551 234.019 28.2604 236.49 28.2604C241.473 28.2604 244.992 31.8236 244.992 37.4456V49.0142H240.495V37.8653C240.495 34.5396 238.712 32.5758 235.794 32.5758C232.877 32.5758 230.812 34.6267 230.812 37.8653V49.0142H226.314V20.7142H226.322Z" fill="white"/>
</g>
<defs>
<clipPath id="clip0_46_226">
<rect width="245" height="69" fill="white"/>
</clipPath>
</defs>
</svg>
